<svg width="23" height="22" viewBox="0 0 23 22" fill="none" xmlns="http://www.w3.org/2000/svg">
<path fill-rule="evenodd" clip-rule="evenodd" d="M9.5 0.25H9.46644H9.46642C8.09471 0.249996 7.01928 0.249992 6.15494 0.320612C5.2748 0.392523 4.54769 0.541379 3.88955 0.876713C2.80762 1.42799 1.92799 2.30762 1.37671 3.38955C1.04138 4.04769 0.892523 4.7748 0.820612 5.65494C0.749992 6.51928 0.749996 7.59471 0.75 8.96642V8.96644V9V13V13.0336V13.0336C0.749996 14.4053 0.749992 15.4807 0.820612 16.3451C0.892523 17.2252 1.04138 17.9523 1.37671 18.6104C1.92799 19.6924 2.80762 20.572 3.88955 21.1233C4.54769 21.4586 5.2748 21.6075 6.15494 21.6794C7.01925 21.75 8.09464 21.75 9.46628 21.75H9.46632H9.46637H9.46642H9.5H13.5H13.5336H13.5336H13.5337H13.5337C14.9054 21.75 15.9808 21.75 16.8451 21.6794C17.7252 21.6075 18.4523 21.4586 19.1104 21.1233C20.1924 20.572 21.072 19.6924 21.6233 18.6104C21.9586 17.9523 22.1075 17.2252 22.1794 16.3451C22.25 15.4808 22.25 14.4054 22.25 13.0337V13.0337V13.0336V13.0336V13V9V8.96642V8.96637V8.96632V8.96628C22.25 7.59464 22.25 6.51925 22.1794 5.65494C22.1075 4.7748 21.9586 4.04769 21.6233 3.38955C21.072 2.30762 20.1924 1.42799 19.1104 0.876713C18.4523 0.541379 17.7252 0.392523 16.8451 0.320612C15.9807 0.249992 14.9053 0.249996 13.5336 0.25H13.5336H13.5H9.5ZM4.57054 2.21322C4.98197 2.00359 5.4897 1.87996 6.27708 1.81563C7.07322 1.75058 8.08749 1.75 9.5 1.75H13.5C14.9125 1.75 15.9268 1.75058 16.7229 1.81563C17.5103 1.87996 18.018 2.00359 18.4295 2.21322C19.2291 2.62068 19.8793 3.27085 20.2868 4.07054C20.4964 4.48197 20.62 4.9897 20.6844 5.77708C20.7494 6.57322 20.75 7.58749 20.75 9V13C20.75 14.4125 20.7494 15.4268 20.6844 16.2229C20.62 17.0103 20.4964 17.518 20.2868 17.9295C19.8793 18.7291 19.2291 19.3793 18.4295 19.7868C18.018 19.9964 17.5103 20.12 16.7229 20.1844C15.9268 20.2494 14.9125 20.25 13.5 20.25H9.5C8.08749 20.25 7.07322 20.2494 6.27708 20.1844C5.4897 20.12 4.98197 19.9964 4.57054 19.7868C3.77085 19.3793 3.12068 18.7291 2.71322 17.9295C2.50359 17.518 2.37996 17.0103 2.31563 16.2229C2.25058 15.4268 2.25 14.4125 2.25 13V9C2.25 7.58749 2.25058 6.57322 2.31563 5.77708C2.37996 4.9897 2.50359 4.48197 2.71322 4.07054C3.12068 3.27085 3.77085 2.62068 4.57054 2.21322ZM8.24988 9C8.24988 8.58579 7.91409 8.25 7.49988 8.25C7.08566 8.25 6.74988 8.58579 6.74988 9V15C6.74988 15.4142 7.08566 15.75 7.49988 15.75C7.91409 15.75 8.24988 15.4142 8.24988 15V9ZM11.4999 6.25C11.9141 6.25 12.2499 6.58579 12.2499 7V15C12.2499 15.4142 11.9141 15.75 11.4999 15.75C11.0857 15.75 10.7499 15.4142 10.7499 15V7C10.7499 6.58579 11.0857 6.25 11.4999 6.25ZM16.2499 11C16.2499 10.5858 15.9141 10.25 15.4999 10.25C15.0857 10.25 14.7499 10.5858 14.7499 11V15C14.7499 15.4142 15.0857 15.75 15.4999 15.75C15.9141 15.75 16.2499 15.4142 16.2499 15V11Z" fill="#363636"/>
</svg>
