<svg width="68" height="26" viewBox="0 0 68 26" fill="none" xmlns="http://www.w3.org/2000/svg">
<rect width="68" height="26" rx="13" fill="#C5C5C5"/>
<rect x="3" y="3" width="20" height="20" rx="10" fill="#FFE156"/>
<circle cx="10.25" cy="7.5" r="1" fill="#B69FF8"/>
<circle cx="15.75" cy="7.5" r="1" fill="#B69FF8"/>
<path d="M17.75 10.5C17.75 13.1234 15.6234 15.25 13 15.25C10.3766 15.25 8.25 13.1234 8.25 10.5" stroke="#B69FF8" stroke-width="1.5" stroke-linecap="round"/>
<path d="M27.8359 8.51562H31.082C31.6797 8.51562 32.1836 8.60938 32.5938 8.79688C33.0078 8.98438 33.3184 9.24414 33.5254 9.57617C33.7324 9.9082 33.8359 10.2891 33.8359 10.7188C33.8359 11.207 33.6992 11.6035 33.4258 11.9082C33.1523 12.2129 32.793 12.418 32.3477 12.5234V12.6055C32.6562 12.6211 32.9492 12.7148 33.2266 12.8867C33.5078 13.0586 33.7344 13.3008 33.9062 13.6133C34.0781 13.9219 34.1641 14.2812 34.1641 14.6914C34.1641 15.1406 34.0547 15.5391 33.8359 15.8867C33.6211 16.2344 33.2969 16.5078 32.8633 16.707C32.4297 16.9023 31.8984 17 31.2695 17H27.8359V8.51562ZM31.0352 15.7227C31.5703 15.7227 31.9668 15.6191 32.2246 15.4121C32.4863 15.2051 32.6172 14.9258 32.6172 14.5742C32.6172 14.3203 32.5527 14.0918 32.4238 13.8887C32.2988 13.6816 32.1191 13.5195 31.8848 13.4023C31.6504 13.2852 31.3789 13.2266 31.0703 13.2266H29.3594V15.7227H31.0352ZM30.8945 12.125C31.1641 12.125 31.4062 12.0762 31.6211 11.9785C31.8359 11.877 32.0039 11.7344 32.125 11.5508C32.25 11.3672 32.3125 11.1523 32.3125 10.9062C32.3125 10.5664 32.1934 10.2949 31.9551 10.0918C31.7168 9.88477 31.375 9.78125 30.9297 9.78125H29.3594V12.125H30.8945ZM34.8555 17L37.8438 8.51562H39.7188L42.7188 17H41.0898L40.3809 14.9023H37.1875L36.4844 17H34.8555ZM39.9707 13.6719L38.8164 10.25H38.7461L37.5977 13.6719H39.9707ZM48.2148 10.8477C48.1797 10.4883 48.0176 10.207 47.7285 10.0039C47.4434 9.80078 47.0703 9.69922 46.6094 9.69922C46.2969 9.69922 46.0234 9.74609 45.7891 9.83984C45.5547 9.93359 45.375 10.0645 45.25 10.2324C45.125 10.4004 45.0625 10.5898 45.0625 10.8008C45.0625 11.125 45.1973 11.377 45.4668 11.5566C45.7363 11.7324 46.0859 11.8711 46.5156 11.9727L47.3125 12.1836C48.043 12.3516 48.6387 12.6309 49.0996 13.0215C49.5645 13.4082 49.7969 13.9414 49.7969 14.6211C49.7969 15.1172 49.6699 15.5547 49.416 15.9336C49.1621 16.3125 48.793 16.6074 48.3086 16.8184C47.8281 17.0254 47.2539 17.1289 46.5859 17.1289C45.9258 17.1289 45.3535 17.0273 44.8691 16.8242C44.3848 16.6172 44.0059 16.3184 43.7324 15.9277C43.4629 15.5332 43.3164 15.0586 43.293 14.5039H44.793C44.8281 14.9336 45.0078 15.2617 45.332 15.4883C45.6602 15.7148 46.0742 15.8281 46.5742 15.8281C46.9062 15.8281 47.2012 15.7773 47.459 15.6758C47.7168 15.5742 47.916 15.4316 48.0566 15.248C48.2012 15.0605 48.2734 14.8477 48.2734 14.6094C48.2734 14.3008 48.1445 14.0605 47.8867 13.8887C47.6328 13.7129 47.25 13.5586 46.7383 13.4258L45.7773 13.1797C44.2695 12.7852 43.5156 12.0234 43.5156 10.8945C43.5156 10.4023 43.6504 9.96875 43.9199 9.59375C44.1895 9.21484 44.5605 8.92188 45.0332 8.71484C45.5098 8.50391 46.043 8.39844 46.6328 8.39844C47.2266 8.39844 47.752 8.50391 48.209 8.71484C48.6699 8.92188 49.0273 9.21094 49.2812 9.58203C49.5391 9.95312 49.6719 10.375 49.6797 10.8477H48.2148ZM52.5859 17H51.0625V8.51562H52.5859V17ZM59.8867 11.375C59.8281 11.043 59.7051 10.7559 59.5176 10.5137C59.3301 10.2715 59.0918 10.0879 58.8027 9.96289C58.5176 9.83398 58.2031 9.76953 57.8594 9.76953C57.3906 9.76953 56.9785 9.88672 56.623 10.1211C56.2676 10.3516 55.9902 10.6914 55.791 11.1406C55.5918 11.5898 55.4922 12.1289 55.4922 12.7578C55.4922 13.3906 55.5918 13.9316 55.791 14.3809C55.9902 14.8301 56.2676 15.1699 56.623 15.4004C56.9824 15.6309 57.3945 15.7461 57.8594 15.7461C58.1953 15.7461 58.5039 15.6855 58.7852 15.5645C59.0703 15.4395 59.3086 15.2598 59.5 15.0254C59.6914 14.791 59.8203 14.5117 59.8867 14.1875H61.4219C61.3438 14.7344 61.1465 15.2305 60.8301 15.6758C60.5176 16.1211 60.1035 16.4727 59.5879 16.7305C59.0723 16.9883 58.4883 17.1172 57.8359 17.1172C57.0898 17.1172 56.4219 16.9434 55.832 16.5957C55.2461 16.2441 54.7871 15.7402 54.4551 15.084C54.123 14.4238 53.957 13.6484 53.957 12.7578C53.957 11.8633 54.123 11.0879 54.4551 10.4316C54.791 9.77539 55.252 9.27344 55.8379 8.92578C56.4277 8.57422 57.0938 8.39844 57.8359 8.39844C58.4609 8.39844 59.0293 8.51758 59.541 8.75586C60.0527 8.99023 60.4727 9.33203 60.8008 9.78125C61.1289 10.2266 61.3359 10.7578 61.4219 11.375H59.8867Z" fill="#FAFAFA"/>
</svg>
