<svg width="24" height="24" viewBox="0 0 24 24" fill="none" xmlns="http://www.w3.org/2000/svg">
<g id="bell">
<path id="Rectangle 4" fill-rule="evenodd" clip-rule="evenodd" d="M12 4C15.7279 4 18.75 7.02241 18.75 10.7503C18.75 12.17 18.75 13.5424 18.75 14.5556C18.75 16.0912 19.2275 17.1551 19.7426 17.8562C19.9931 18.1972 19.7098 19 19.2866 19L4.71338 19C4.29022 19 4.00687 18.1972 4.25743 17.8562C4.77249 17.1551 5.25 16.0912 5.25 14.5556C5.25 13.5424 5.25 12.17 5.25 10.7503C5.25 7.02241 8.27208 4 12 4V4Z" stroke="#363636" stroke-width="1.4" stroke-linejoin="round"/>
<path id="Oval" d="M10 19C10 20.1046 10.8954 21 12 21C13.1046 21 14 20.1046 14 19" stroke="#363636" stroke-width="1.4"/>
<circle id="alrt" cx="17" cy="5" r="3" fill="#FF946D"/>
</g>
</svg>
