<svg width="25" height="24" viewBox="0 0 25 24" fill="none" xmlns="http://www.w3.org/2000/svg">
<rect x="2.5" y="2" width="20" height="20" rx="6" fill="#A4BFED"/>
<path fill-rule="evenodd" clip-rule="evenodd" d="M9.25 1C9.25 0.585786 8.91421 0.25 8.5 0.25C8.08579 0.25 7.75 0.585786 7.75 1V1.36694C6.85977 1.46238 6.11404 1.64 5.43556 1.98571C4.16547 2.63285 3.13285 3.66547 2.48571 4.93556C2.09588 5.70065 1.91977 6.55124 1.83424 7.59814C1.74999 8.62922 1.75 9.91462 1.75 11.566V11.5661V11.6V12.4V12.4339V12.434C1.75 14.0854 1.74999 15.3708 1.83424 16.4019C1.91977 17.4488 2.09588 18.2994 2.48571 19.0644C3.13285 20.3345 4.16547 21.3671 5.43556 22.0143C6.20065 22.4041 7.05124 22.5802 8.09814 22.6658C9.12912 22.75 10.4144 22.75 12.0656 22.75H12.0657H12.0657H12.0657H12.0658H12.0658H12.0659H12.0659H12.066H12.066H12.1H12.9H12.934H12.934H12.9341H12.9341H12.9342H12.9342H12.9343H12.9343H12.9343H12.9344C14.5856 22.75 15.8709 22.75 16.9019 22.6658C17.9488 22.5802 18.7994 22.4041 19.5644 22.0143C20.8345 21.3671 21.8671 20.3345 22.5143 19.0644C22.9041 18.2994 23.0802 17.4488 23.1658 16.4019C23.25 15.3709 23.25 14.0856 23.25 12.4344V12.4343V12.4343V12.4343V12.4342V12.4342V12.4341V12.4341V12.434V12.434V12.4V11.6V11.566V11.566V11.5659V11.5659V11.5658V11.5658V11.5657V11.5657V11.5657V11.5656C23.25 9.91437 23.25 8.62912 23.1658 7.59814C23.0802 6.55124 22.9041 5.70065 22.5143 4.93556C21.8671 3.66547 20.8345 2.63285 19.5644 1.98571C18.886 1.64 18.1402 1.46238 17.25 1.36694V1C17.25 0.585786 16.9142 0.25 16.5 0.25C16.0858 0.25 15.75 0.585786 15.75 1V1.27399C14.9486 1.25 14.0205 1.25 12.934 1.25H12.9339H12.9H12.1H12.0661H12.066C10.9795 1.25 10.0514 1.25 9.25 1.27399V1ZM15.75 4V2.7746C14.9708 2.75027 14.042 2.75 12.9 2.75H12.1C10.958 2.75 10.0292 2.75027 9.25 2.7746V4C9.25 4.41421 8.91421 4.75 8.5 4.75C8.08579 4.75 7.75 4.41421 7.75 4V2.87684C7.04969 2.9632 6.54464 3.10409 6.11655 3.32222C5.1287 3.82555 4.32555 4.6287 3.82222 5.61655C3.55809 6.13493 3.40721 6.76615 3.32925 7.72029C3.25058 8.68317 3.25 9.90747 3.25 11.6V12.4C3.25 14.0925 3.25058 15.3168 3.32925 16.2797C3.40721 17.2338 3.55809 17.8651 3.82222 18.3834C4.32555 19.3713 5.1287 20.1744 6.11655 20.6778C6.63493 20.9419 7.26615 21.0928 8.22029 21.1707C9.18317 21.2494 10.4075 21.25 12.1 21.25H12.9C14.5925 21.25 15.8168 21.2494 16.7797 21.1707C17.7338 21.0928 18.3651 20.9419 18.8834 20.6778C19.8713 20.1744 20.6744 19.3713 21.1778 18.3834C21.4419 17.8651 21.5928 17.2338 21.6707 16.2797C21.7494 15.3168 21.75 14.0925 21.75 12.4V11.6C21.75 9.90747 21.7494 8.68317 21.6707 7.72029C21.5928 6.76615 21.4419 6.13493 21.1778 5.61655C20.6744 4.6287 19.8713 3.82555 18.8834 3.32222C18.4554 3.10409 17.9503 2.9632 17.25 2.87684V4C17.25 4.41421 16.9142 4.75 16.5 4.75C16.0858 4.75 15.75 4.41421 15.75 4ZM7.5 7.25C7.08579 7.25 6.75 7.58579 6.75 8C6.75 8.41421 7.08579 8.75 7.5 8.75H17.5C17.9142 8.75 18.25 8.41421 18.25 8C18.25 7.58579 17.9142 7.25 17.5 7.25H7.5ZM9.5 13C9.5 13.5523 9.05228 14 8.5 14C7.94772 14 7.5 13.5523 7.5 13C7.5 12.4477 7.94772 12 8.5 12C9.05228 12 9.5 12.4477 9.5 13ZM8.5 18C9.05228 18 9.5 17.5523 9.5 17C9.5 16.4477 9.05228 16 8.5 16C7.94772 16 7.5 16.4477 7.5 17C7.5 17.5523 7.94772 18 8.5 18ZM13.5 17C13.5 17.5523 13.0523 18 12.5 18C11.9477 18 11.5 17.5523 11.5 17C11.5 16.4477 11.9477 16 12.5 16C13.0523 16 13.5 16.4477 13.5 17ZM16.5 18C17.0523 18 17.5 17.5523 17.5 17C17.5 16.4477 17.0523 16 16.5 16C15.9477 16 15.5 16.4477 15.5 17C15.5 17.5523 15.9477 18 16.5 18ZM13.5 13C13.5 13.5523 13.0523 14 12.5 14C11.9477 14 11.5 13.5523 11.5 13C11.5 12.4477 11.9477 12 12.5 12C13.0523 12 13.5 12.4477 13.5 13ZM16.5 14C17.0523 14 17.5 13.5523 17.5 13C17.5 12.4477 17.0523 12 16.5 12C15.9477 12 15.5 12.4477 15.5 13C15.5 13.5523 15.9477 14 16.5 14Z" fill="#363636"/>
</svg>
