<svg width="23" height="23" viewBox="0 0 23 23" fill="none" xmlns="http://www.w3.org/2000/svg">
<path fill-rule="evenodd" clip-rule="evenodd" d="M8.25 1C8.25 0.585786 7.91421 0.25 7.5 0.25C7.08579 0.25 6.75 0.585786 6.75 1V1.36694C5.85977 1.46238 5.11404 1.64 4.43556 1.98571C3.16547 2.63285 2.13285 3.66547 1.48571 4.93556C1.09588 5.70065 0.919771 6.55124 0.834236 7.59814C0.749993 8.62922 0.749996 9.91462 0.75 11.566V11.5661V11.6V12.4V12.4339V12.434C0.749996 14.0854 0.749993 15.3708 0.834236 16.4019C0.919771 17.4488 1.09588 18.2994 1.48571 19.0644C2.13285 20.3345 3.16547 21.3671 4.43556 22.0143C5.20065 22.4041 6.05124 22.5802 7.09814 22.6658C8.12912 22.75 9.41437 22.75 11.0656 22.75H11.0657H11.0657H11.0657H11.0658H11.0658H11.0659H11.0659H11.066H11.066H11.1H11.9H11.934H11.934H11.9341H11.9341H11.9342H11.9342H11.9343H11.9343H11.9343H11.9344C13.5856 22.75 14.8709 22.75 15.9019 22.6658C16.9488 22.5802 17.7994 22.4041 18.5644 22.0143C19.8345 21.3671 20.8671 20.3345 21.5143 19.0644C21.9041 18.2994 22.0802 17.4488 22.1658 16.4019C22.25 15.3709 22.25 14.0856 22.25 12.4344V12.4343V12.4343V12.4343V12.4342V12.4342V12.4341V12.4341V12.434V12.434V12.4V11.6V11.566V11.566V11.5659V11.5659V11.5658V11.5658V11.5657V11.5657V11.5657V11.5656C22.25 9.91437 22.25 8.62912 22.1658 7.59814C22.0802 6.55124 21.9041 5.70065 21.5143 4.93556C20.8671 3.66547 19.8345 2.63285 18.5644 1.98571C17.886 1.64 17.1402 1.46238 16.25 1.36694V1C16.25 0.585786 15.9142 0.25 15.5 0.25C15.0858 0.25 14.75 0.585786 14.75 1V1.27399C13.9486 1.25 13.0205 1.25 11.934 1.25H11.9339H11.9H11.1H11.0661H11.066C9.97953 1.25 9.05145 1.25 8.25 1.27399V1ZM14.75 4V2.7746C13.9708 2.75027 13.042 2.75 11.9 2.75H11.1C9.95801 2.75 9.02919 2.75027 8.25 2.7746V4C8.25 4.41421 7.91421 4.75 7.5 4.75C7.08579 4.75 6.75 4.41421 6.75 4V2.87684C6.04969 2.9632 5.54464 3.10409 5.11655 3.32222C4.1287 3.82555 3.32555 4.6287 2.82222 5.61655C2.55809 6.13493 2.40721 6.76615 2.32925 7.72029C2.25058 8.68317 2.25 9.90747 2.25 11.6V12.4C2.25 14.0925 2.25058 15.3168 2.32925 16.2797C2.40721 17.2338 2.55809 17.8651 2.82222 18.3834C3.32555 19.3713 4.1287 20.1744 5.11655 20.6778C5.63493 20.9419 6.26615 21.0928 7.22029 21.1707C8.18317 21.2494 9.40747 21.25 11.1 21.25H11.9C13.5925 21.25 14.8168 21.2494 15.7797 21.1707C16.7338 21.0928 17.3651 20.9419 17.8834 20.6778C18.8713 20.1744 19.6744 19.3713 20.1778 18.3834C20.4419 17.8651 20.5928 17.2338 20.6707 16.2797C20.7494 15.3168 20.75 14.0925 20.75 12.4V11.6C20.75 9.90747 20.7494 8.68317 20.6707 7.72029C20.5928 6.76615 20.4419 6.13493 20.1778 5.61655C19.6744 4.6287 18.8713 3.82555 17.8834 3.32222C17.4554 3.10409 16.9503 2.9632 16.25 2.87684V4C16.25 4.41421 15.9142 4.75 15.5 4.75C15.0858 4.75 14.75 4.41421 14.75 4ZM6.5 7.25C6.08579 7.25 5.75 7.58579 5.75 8C5.75 8.41421 6.08579 8.75 6.5 8.75H16.5C16.9142 8.75 17.25 8.41421 17.25 8C17.25 7.58579 16.9142 7.25 16.5 7.25H6.5ZM8.5 13C8.5 13.5523 8.05228 14 7.5 14C6.94772 14 6.5 13.5523 6.5 13C6.5 12.4477 6.94772 12 7.5 12C8.05228 12 8.5 12.4477 8.5 13ZM7.5 18C8.05228 18 8.5 17.5523 8.5 17C8.5 16.4477 8.05228 16 7.5 16C6.94772 16 6.5 16.4477 6.5 17C6.5 17.5523 6.94772 18 7.5 18ZM12.5 17C12.5 17.5523 12.0523 18 11.5 18C10.9477 18 10.5 17.5523 10.5 17C10.5 16.4477 10.9477 16 11.5 16C12.0523 16 12.5 16.4477 12.5 17ZM15.5 18C16.0523 18 16.5 17.5523 16.5 17C16.5 16.4477 16.0523 16 15.5 16C14.9477 16 14.5 16.4477 14.5 17C14.5 17.5523 14.9477 18 15.5 18ZM12.5 13C12.5 13.5523 12.0523 14 11.5 14C10.9477 14 10.5 13.5523 10.5 13C10.5 12.4477 10.9477 12 11.5 12C12.0523 12 12.5 12.4477 12.5 13ZM15.5 14C16.0523 14 16.5 13.5523 16.5 13C16.5 12.4477 16.0523 12 15.5 12C14.9477 12 14.5 12.4477 14.5 13C14.5 13.5523 14.9477 14 15.5 14Z" fill="#363636"/>
</svg>
