<svg xmlns="http://www.w3.org/2000/svg" width="19" height="19" viewBox="0 0 19 19" fill="none">
  <g clip-path="url(#clip0_430_4030)">
    <path fill-rule="evenodd" clip-rule="evenodd" d="M7.15005 1.1498C7.15005 0.735591 6.81426 0.399805 6.40005 0.399805C5.98584 0.399805 5.65005 0.735591 5.65005 1.1498V1.2933C5.16766 1.36982 4.73453 1.48997 4.32712 1.68266C3.16638 2.23165 2.2319 3.16613 1.68291 4.32687C1.39698 4.93141 1.27077 5.59255 1.20985 6.38727C1.15004 7.16744 1.15004 8.13571 1.15005 9.36848V9.36849L1.15005 9.3998L1.15005 9.43112V9.43113C1.15004 10.6639 1.15004 11.6322 1.20985 12.4123C1.27077 13.2071 1.39698 13.8682 1.68291 14.4727C2.2319 15.6335 3.16638 16.568 4.32712 17.1169C4.93166 17.4029 5.5928 17.5291 6.38752 17.59C7.16768 17.6498 8.13596 17.6498 9.36874 17.6498H9.40005H9.43136C10.6641 17.6498 11.6324 17.6498 12.4126 17.59C13.2073 17.5291 13.8684 17.4029 14.473 17.1169C15.6337 16.568 16.5682 15.6335 17.1172 14.4727C17.4031 13.8682 17.5293 13.2071 17.5902 12.4123C17.6501 11.6322 17.6501 10.6639 17.65 9.43111V9.3998V9.36849C17.6501 8.13571 17.6501 7.16744 17.5902 6.38727C17.5293 5.59255 17.4031 4.93141 17.1172 4.32687C16.5682 3.16613 15.6337 2.23165 14.473 1.68266C14.0656 1.48997 13.6324 1.36982 13.15 1.2933V1.1498C13.15 0.735591 12.8143 0.399805 12.4 0.399805C11.9858 0.399805 11.65 0.735591 11.65 1.1498V1.17007C11.0218 1.1498 10.2909 1.1498 9.43137 1.1498H9.43137L9.40005 1.1498L9.36873 1.1498H9.36872C8.50922 1.1498 7.77829 1.1498 7.15005 1.17007V1.1498ZM11.65 3.3998V2.67082C11.046 2.65007 10.3166 2.6498 9.40005 2.6498C8.48345 2.6498 7.75412 2.65007 7.15005 2.67082V3.3998C7.15005 3.81402 6.81426 4.1498 6.40005 4.1498C5.98584 4.1498 5.65005 3.81402 5.65005 3.3998V2.81776C5.38264 2.87374 5.16359 2.94635 4.96845 3.03865C4.12142 3.43926 3.43951 4.12118 3.03889 4.96821C2.86397 5.33806 2.75975 5.79376 2.70546 6.50193C2.65056 7.21805 2.65005 8.12893 2.65005 9.3998C2.65005 10.6707 2.65056 11.5816 2.70546 12.2977C2.75975 13.0059 2.86397 13.4615 3.03889 13.8314C3.43951 14.6784 4.12142 15.3603 4.96845 15.761C5.3383 15.9359 5.794 16.0401 6.50217 16.0944C7.2183 16.1493 8.12918 16.1498 9.40005 16.1498C10.6709 16.1498 11.5818 16.1493 12.2979 16.0944C13.0061 16.0401 13.4618 15.9359 13.8316 15.761C14.6787 15.3603 15.3606 14.6784 15.7612 13.8314C15.9361 13.4615 16.0403 13.0059 16.0946 12.2977C16.1495 11.5816 16.15 10.6707 16.15 9.3998C16.15 8.12893 16.1495 7.21805 16.0946 6.50193C16.0403 5.79376 15.9361 5.33806 15.7612 4.96821C15.3606 4.12118 14.6787 3.43926 13.8316 3.03865C13.6365 2.94635 13.4175 2.87374 13.15 2.81776V3.3998C13.15 3.81402 12.8143 4.1498 12.4 4.1498C11.9858 4.1498 11.65 3.81402 11.65 3.3998ZM5.65005 5.6498C5.23584 5.6498 4.90005 5.98559 4.90005 6.3998C4.90005 6.81402 5.23584 7.1498 5.65005 7.1498H13.15C13.5643 7.1498 13.9 6.81402 13.9 6.3998C13.9 5.98559 13.5643 5.6498 13.15 5.6498H5.65005ZM7.15005 10.1498C7.15005 10.564 6.81426 10.8998 6.40005 10.8998C5.98584 10.8998 5.65005 10.564 5.65005 10.1498C5.65005 9.73559 5.98584 9.39981 6.40005 9.39981C6.81426 9.39981 7.15005 9.73559 7.15005 10.1498ZM6.40005 13.8998C6.81426 13.8998 7.15005 13.564 7.15005 13.1498C7.15005 12.7356 6.81426 12.3998 6.40005 12.3998C5.98584 12.3998 5.65005 12.7356 5.65005 13.1498C5.65005 13.564 5.98584 13.8998 6.40005 13.8998ZM10.15 13.1498C10.15 13.564 9.81426 13.8998 9.40005 13.8998C8.98583 13.8998 8.65005 13.564 8.65005 13.1498C8.65005 12.7356 8.98583 12.3998 9.40005 12.3998C9.81426 12.3998 10.15 12.7356 10.15 13.1498ZM12.4 13.8998C12.8143 13.8998 13.15 13.564 13.15 13.1498C13.15 12.7356 12.8143 12.3998 12.4 12.3998C11.9858 12.3998 11.65 12.7356 11.65 13.1498C11.65 13.564 11.9858 13.8998 12.4 13.8998ZM10.15 10.1498C10.15 10.564 9.81426 10.8998 9.40005 10.8998C8.98583 10.8998 8.65005 10.564 8.65005 10.1498C8.65005 9.73559 8.98583 9.39981 9.40005 9.39981C9.81426 9.39981 10.15 9.73559 10.15 10.1498ZM12.4 10.8998C12.8143 10.8998 13.15 10.564 13.15 10.1498C13.15 9.73559 12.8143 9.39981 12.4 9.39981C11.9858 9.39981 11.65 9.73559 11.65 10.1498C11.65 10.564 11.9858 10.8998 12.4 10.8998Z" fill="#C5C5C5"/>
  </g>
  <defs>
    <clipPath id="clip0_430_4030">
      <rect width="18" height="18" fill="white" transform="translate(0.400024 0.399902)"/>
    </clipPath>
  </defs>
</svg>