<svg xmlns="http://www.w3.org/2000/svg" width="18" height="18" viewBox="0 0 18 18" fill="none">
  <g clip-path="url(#clip0_515_571)">
    <path fill-rule="evenodd" clip-rule="evenodd" d="M6.75 0.75C6.75 0.335786 6.41421 0 6 0C5.58579 0 5.25 0.335786 5.25 0.75V0.893495C4.76761 0.970013 4.33448 1.09017 3.92707 1.28286C2.76633 1.83185 1.83185 2.76633 1.28286 3.92707C0.996935 4.53161 0.870725 5.19275 0.809801 5.98747C0.749993 6.76763 0.749996 7.7359 0.75 8.96867V8.96868V9V9.03132V9.03133C0.749996 10.2641 0.749993 11.2324 0.809801 12.0125C0.870725 12.8073 0.996935 13.4684 1.28286 14.0729C1.83185 15.2337 2.76633 16.1682 3.92707 16.7171C4.53161 17.0031 5.19275 17.1293 5.98747 17.1902C6.76764 17.25 7.73591 17.25 8.96869 17.25H9H9.03131C10.2641 17.25 11.2324 17.25 12.0125 17.1902C12.8073 17.1293 13.4684 17.0031 14.0729 16.7171C15.2337 16.1682 16.1682 15.2337 16.7171 14.0729C17.0031 13.4684 17.1293 12.8073 17.1902 12.0125C17.25 11.2324 17.25 10.2641 17.25 9.03131V9V8.96869C17.25 7.73591 17.25 6.76764 17.1902 5.98747C17.1293 5.19275 17.0031 4.53161 16.7171 3.92707C16.1682 2.76633 15.2337 1.83185 14.0729 1.28286C13.6655 1.09017 13.2324 0.970013 12.75 0.893495V0.75C12.75 0.335786 12.4142 0 12 0C11.5858 0 11.25 0.335786 11.25 0.75V0.770263C10.6218 0.749995 9.89083 0.749997 9.03133 0.75H9.03132L9 0.75L8.96868 0.75H8.96867C8.10917 0.749997 7.37824 0.749995 6.75 0.770263V0.75ZM11.25 3V2.27101C10.6459 2.25027 9.9166 2.25 9 2.25C8.0834 2.25 7.35407 2.25027 6.75 2.27101V3C6.75 3.41421 6.41421 3.75 6 3.75C5.58579 3.75 5.25 3.41421 5.25 3V2.41796C4.98259 2.47394 4.76355 2.54655 4.5684 2.63884C3.72137 3.03946 3.03946 3.72137 2.63884 4.5684C2.46392 4.93825 2.3597 5.39395 2.30541 6.10212C2.25051 6.81825 2.25 7.72913 2.25 9C2.25 10.2709 2.25051 11.1817 2.30541 11.8979C2.3597 12.606 2.46392 13.0617 2.63884 13.4316C3.03946 14.2786 3.72137 14.9605 4.5684 15.3612C4.93825 15.5361 5.39395 15.6403 6.10212 15.6946C6.81825 15.7495 7.72913 15.75 9 15.75C10.2709 15.75 11.1817 15.7495 11.8979 15.6946C12.606 15.6403 13.0617 15.5361 13.4316 15.3612C14.2786 14.9605 14.9605 14.2786 15.3612 13.4316C15.5361 13.0617 15.6403 12.606 15.6946 11.8979C15.7495 11.1817 15.75 10.2709 15.75 9C15.75 7.72913 15.7495 6.81825 15.6946 6.10212C15.6403 5.39395 15.5361 4.93825 15.3612 4.5684C14.9605 3.72137 14.2786 3.03946 13.4316 2.63884C13.2365 2.54655 13.0174 2.47394 12.75 2.41796V3C12.75 3.41421 12.4142 3.75 12 3.75C11.5858 3.75 11.25 3.41421 11.25 3ZM5.25 6C4.83579 6 4.5 6.33579 4.5 6.75C4.5 7.16421 4.83579 7.5 5.25 7.5H12.75C13.1642 7.5 13.5 7.16421 13.5 6.75C13.5 6.33579 13.1642 6 12.75 6H5.25ZM4.5 9.75C4.5 9.33579 4.83579 9 5.25 9H12.75C13.1642 9 13.5 9.33579 13.5 9.75C13.5 10.1642 13.1642 10.5 12.75 10.5H5.25C4.83579 10.5 4.5 10.1642 4.5 9.75ZM5.25 12C4.83579 12 4.5 12.3358 4.5 12.75C4.5 13.1642 4.83579 13.5 5.25 13.5H8.25C8.66421 13.5 9 13.1642 9 12.75C9 12.3358 8.66421 12 8.25 12H5.25Z" fill="#C5C5C5"/>
  </g>
  <defs>
    <clipPath id="clip0_515_571">
      <rect width="18" height="18" fill="white"/>
    </clipPath>
  </defs>
</svg>