<svg width="25" height="24" viewBox="0 0 25 24" fill="none" xmlns="http://www.w3.org/2000/svg">
<rect x="2.5" y="2" width="20" height="20" rx="5" fill="#A4BFED"/>
<path fill-rule="evenodd" clip-rule="evenodd" d="M10.5 1.25H10.4664C9.09472 1.25 8.01929 1.24999 7.15494 1.32061C6.27479 1.39252 5.54768 1.54138 4.88955 1.87671C3.80762 2.42798 2.92798 3.30762 2.37671 4.38955C2.04138 5.04768 1.89252 5.77479 1.82061 6.65494C1.74999 7.51929 1.75 8.59472 1.75 9.96644V10V14V14.0336C1.75 15.4053 1.74999 16.4807 1.82061 17.3451C1.89252 18.2252 2.04138 18.9523 2.37671 19.6104C2.92798 20.6924 3.80762 21.572 4.88955 22.1233C5.54768 22.4586 6.27479 22.6075 7.15494 22.6794C8.01925 22.75 9.09464 22.75 10.4663 22.75H10.4663H10.4664H10.4664H10.5H14.5H14.5336H14.5336H14.5337H14.5337C15.9054 22.75 16.9808 22.75 17.8451 22.6794C18.7252 22.6075 19.4523 22.4586 20.1104 22.1233C21.1924 21.572 22.072 20.6924 22.6233 19.6104C22.9586 18.9523 23.1075 18.2252 23.1794 17.3451C23.25 16.4808 23.25 15.4054 23.25 14.0337V14.0337V14.0336V14.0336V14V10V9.96642V9.96637V9.96632V9.96628C23.25 8.59464 23.25 7.51925 23.1794 6.65494C23.1075 5.77479 22.9586 5.04768 22.6233 4.38955C22.072 3.30762 21.1924 2.42798 20.1104 1.87671C19.4523 1.54138 18.7252 1.39252 17.8451 1.32061C16.9807 1.24999 15.9053 1.25 14.5336 1.25H14.5H10.5ZM5.57054 3.21322C5.98197 3.00359 6.4897 2.87996 7.27708 2.81563C8.07322 2.75058 9.08749 2.75 10.5 2.75H14.5C15.9125 2.75 16.9268 2.75058 17.7229 2.81563C18.5103 2.87996 19.018 3.00359 19.4295 3.21322C20.2291 3.62068 20.8793 4.27085 21.2868 5.07054C21.4964 5.48197 21.62 5.9897 21.6844 6.77708C21.7494 7.57322 21.75 8.58749 21.75 10V14C21.75 15.4125 21.7494 16.4268 21.6844 17.2229C21.62 18.0103 21.4964 18.518 21.2868 18.9295C20.8793 19.7291 20.2291 20.3793 19.4295 20.7868C19.018 20.9964 18.5103 21.12 17.7229 21.1844C16.9268 21.2494 15.9125 21.25 14.5 21.25H10.5C9.08749 21.25 8.07322 21.2494 7.27708 21.1844C6.4897 21.12 5.98197 20.9964 5.57054 20.7868C4.77085 20.3793 4.12068 19.7291 3.71322 18.9295C3.50359 18.518 3.37996 18.0103 3.31563 17.2229C3.25058 16.4268 3.25 15.4125 3.25 14V10C3.25 8.58749 3.25058 7.57322 3.31563 6.77708C3.37996 5.9897 3.50359 5.48197 3.71322 5.07054C4.12068 4.27085 4.77085 3.62068 5.57054 3.21322ZM9.24988 10C9.24988 9.58579 8.91409 9.25 8.49988 9.25C8.08566 9.25 7.74988 9.58579 7.74988 10V16C7.74988 16.4142 8.08566 16.75 8.49988 16.75C8.91409 16.75 9.24988 16.4142 9.24988 16V10ZM12.4999 7.25C12.9141 7.25 13.2499 7.58579 13.2499 8V16C13.2499 16.4142 12.9141 16.75 12.4999 16.75C12.0857 16.75 11.7499 16.4142 11.7499 16V8C11.7499 7.58579 12.0857 7.25 12.4999 7.25ZM17.2499 12C17.2499 11.5858 16.9141 11.25 16.4999 11.25C16.0857 11.25 15.7499 11.5858 15.7499 12V16C15.7499 16.4142 16.0857 16.75 16.4999 16.75C16.9141 16.75 17.2499 16.4142 17.2499 16V12Z" fill="#363636"/>
</svg>
