<svg width="25" height="24" viewBox="0 0 25 24" fill="none" xmlns="http://www.w3.org/2000/svg">
<path fill-rule="evenodd" clip-rule="evenodd" d="M21.794 6.49617C22.0878 7.20409 22.25 7.98044 22.25 8.79467V12.2947V15.7947C22.25 19.1084 19.5637 21.7947 16.25 21.7947H9.25C5.93629 21.7947 3.25 19.1084 3.25 15.7947V8.79467C3.25 5.48096 5.93629 2.79467 9.25 2.79467H12.75H16.25C17.0568 2.79467 17.8265 2.95392 18.5292 3.24272C19.4392 2.52924 20.7589 2.59062 21.5984 3.42686C22.4388 4.26398 22.504 5.58411 21.794 6.49617Z" fill="#A4BFED"/>
<path fill-rule="evenodd" clip-rule="evenodd" d="M22.1277 2.89549C20.929 1.7015 18.9905 1.7015 17.7918 2.89549L16.9236 3.76029L16.9236 3.76028L16.9209 3.76302L12.2427 8.47089C11.7388 8.97809 11.3903 9.61881 11.2384 10.3175L10.8462 12.1214C10.5762 13.3635 11.6787 14.47 12.9218 14.2045L14.7317 13.818C15.4434 13.666 16.0955 13.3102 16.6085 12.7939L21.2724 8.10036L21.2751 8.09764L22.1277 7.24847C23.3331 6.04782 23.3331 4.09614 22.1277 2.89549ZM21.0691 6.18572L20.6599 6.59331C19.8161 5.96345 19.0661 5.21622 18.4329 4.37407L18.8504 3.95823C19.4638 3.34725 20.4557 3.34725 21.0691 3.95824C21.6859 4.57263 21.6859 5.57133 21.0691 6.18572ZM19.5907 7.6647C18.7587 7.02115 18.0106 6.27555 17.3639 5.44526L13.3068 9.52818C13.0044 9.8325 12.7953 10.2169 12.7041 10.6362L12.312 12.44C12.2734 12.6175 12.4309 12.7755 12.6085 12.7376L14.4184 12.3511C14.8454 12.2599 15.2367 12.0464 15.5445 11.7367L19.5907 7.6647ZM4 8.79465C4 5.89516 6.3505 3.54465 9.25 3.54465H12.75C13.1642 3.54465 13.5 3.20887 13.5 2.79465C13.5 2.38044 13.1642 2.04465 12.75 2.04465H9.25C5.52208 2.04465 2.5 5.06673 2.5 8.79465V15.7947C2.5 19.5226 5.52208 22.5447 9.25 22.5447H16.25C19.9779 22.5447 23 19.5226 23 15.7947V12.2947C23 11.8804 22.6642 11.5447 22.25 11.5447C21.8358 11.5447 21.5 11.8804 21.5 12.2947V15.7947C21.5 18.6941 19.1495 21.0447 16.25 21.0447H9.25C6.3505 21.0447 4 18.6941 4 15.7947V8.79465Z" fill="#363636"/>
</svg>
