<svg width="16" height="15" viewBox="0 0 16 15" fill="none" xmlns="http://www.w3.org/2000/svg">
<path d="M1.31824 14H14.6819M10.7885 1.70936L4.61421 7.97811C4.38494 8.21088 4.21925 8.49859 4.13299 8.81372L3.7138 10.3451C3.58335 10.8217 4.02207 11.2586 4.49808 11.1262L5.98328 10.7132C6.30499 10.6237 6.5976 10.4514 6.83191 10.2135L12.9983 3.95289M10.7885 1.70936L11.3505 1.13879C11.9672 0.512669 12.9771 0.512669 13.5938 1.13879V1.13879C14.1974 1.75161 14.1974 2.73545 13.5938 3.34827L12.9983 3.95289M10.7885 1.70936L10.8766 1.83844C11.4441 2.67077 12.164 3.3882 12.9983 3.95289V3.95289" stroke="#FAFAFA" stroke-width="0.954545" stroke-linecap="round" stroke-linejoin="round"/>
</svg>
