<svg width="16" height="16" viewBox="0 0 11 12" fill="none" xmlns="http://www.w3.org/2000/svg">
<path fill-rule="evenodd" clip-rule="evenodd" d="M4.21014 1.10225C4.16919 0.838954 3.94148 0.637451 3.6667 0.637451C3.3675 0.637451 3.1241 0.876367 3.11686 1.17383C2.76986 1.22353 2.45908 1.30778 2.16853 1.45582C1.5476 1.7722 1.04276 2.27704 0.726378 2.89797C0.530421 3.28256 0.446238 3.70258 0.405992 4.19516C0.366691 4.67618 0.366695 5.2724 0.366699 6.02208V6.04614V6.41281V6.43687C0.366695 7.18655 0.366691 7.78277 0.405992 8.26379C0.446238 8.75637 0.530421 9.17639 0.726378 9.56098C1.04276 10.1819 1.5476 10.6867 2.16853 11.0031C2.55312 11.1991 2.97314 11.2833 3.46572 11.3235C3.94675 11.3628 4.54297 11.3628 5.29266 11.3628H5.3167H5.68337H5.7074C6.45709 11.3628 7.05332 11.3628 7.53435 11.3235C8.02693 11.2833 8.44695 11.1991 8.83153 11.0031C9.45247 10.6867 9.9573 10.1819 10.2737 9.56098C10.4696 9.17639 10.5538 8.75637 10.5941 8.26379C10.6334 7.78276 10.6334 7.18654 10.6334 6.43685V6.41281V6.04614V6.0221C10.6334 5.27242 10.6334 4.67619 10.5941 4.19516C10.5538 3.70258 10.4696 3.28256 10.2737 2.89797C9.9573 2.27704 9.45247 1.7722 8.83153 1.45582C8.54103 1.3078 8.23032 1.22356 7.88338 1.17385C7.87616 0.87638 7.63276 0.637451 7.33354 0.637451C7.05876 0.637451 6.83105 0.838956 6.7901 1.10226C6.46966 1.09614 6.11075 1.09614 5.70743 1.09614L5.68337 1.09614H5.3167L5.29263 1.09614C4.88939 1.09614 4.53054 1.09614 4.21014 1.10225ZM6.78355 2.56245V2.20231C6.4742 2.19627 6.11351 2.19614 5.68337 2.19614H5.3167C4.88664 2.19614 4.526 2.19627 4.2167 2.20231V2.56245C4.2167 2.86621 3.97046 3.11245 3.6667 3.11245C3.36294 3.11245 3.1167 2.86621 3.1167 2.56245V2.28903C2.93154 2.32537 2.7898 2.37383 2.66792 2.43593C2.25396 2.64685 1.91741 2.98341 1.70649 3.39736C1.60271 3.60103 1.53703 3.86018 1.50234 4.28474C1.46713 4.71571 1.4667 5.26699 1.4667 6.04614V6.41281C1.4667 7.19196 1.46713 7.74324 1.50234 8.17422C1.53703 8.59877 1.60271 8.85792 1.70649 9.06159C1.91741 9.47554 2.25396 9.8121 2.66792 10.023C2.87159 10.1268 3.13074 10.1925 3.55529 10.2272C3.98627 10.2624 4.53755 10.2628 5.3167 10.2628H5.68337C6.46251 10.2628 7.0138 10.2624 7.44477 10.2272C7.86933 10.1925 8.12847 10.1268 8.33214 10.023C8.7461 9.8121 9.08266 9.47554 9.29358 9.06159C9.39736 8.85792 9.46304 8.59877 9.49773 8.17422C9.53294 7.74324 9.53337 7.19196 9.53337 6.41281V6.04614C9.53337 5.267 9.53294 4.71571 9.49773 4.28474C9.46304 3.86018 9.39736 3.60103 9.29358 3.39736C9.08266 2.98341 8.7461 2.64685 8.33214 2.43593C8.21031 2.37385 8.06862 2.3254 7.88354 2.28907V2.56245C7.88354 2.86621 7.6373 3.11245 7.33354 3.11245C7.02979 3.11245 6.78355 2.86621 6.78355 2.56245ZM3.20854 3.84614C2.90479 3.84614 2.65855 4.09239 2.65855 4.39614C2.65855 4.6999 2.90479 4.94614 3.20854 4.94614H7.79188C8.09563 4.94614 8.34188 4.6999 8.34188 4.39614C8.34188 4.09239 8.09563 3.84614 7.79188 3.84614H3.20854ZM4.12521 6.68763C4.12521 6.94076 3.92001 7.14596 3.66688 7.14596C3.41375 7.14596 3.20854 6.94076 3.20854 6.68763C3.20854 6.4345 3.41375 6.2293 3.66688 6.2293C3.92001 6.2293 4.12521 6.4345 4.12521 6.68763ZM3.66688 8.97912C3.92001 8.97912 4.12521 8.77392 4.12521 8.52078C4.12521 8.26765 3.92001 8.06245 3.66688 8.06245C3.41375 8.06245 3.20854 8.26765 3.20854 8.52078C3.20854 8.77392 3.41375 8.97912 3.66688 8.97912ZM5.95837 8.52078C5.95837 8.77392 5.75316 8.97912 5.50003 8.97912C5.2469 8.97912 5.0417 8.77392 5.0417 8.52078C5.0417 8.26765 5.2469 8.06245 5.50003 8.06245C5.75316 8.06245 5.95837 8.26765 5.95837 8.52078ZM7.33346 8.97912C7.58659 8.97912 7.79179 8.77392 7.79179 8.52078C7.79179 8.26765 7.58659 8.06245 7.33346 8.06245C7.08033 8.06245 6.87512 8.26765 6.87512 8.52078C6.87512 8.77392 7.08033 8.97912 7.33346 8.97912ZM5.95837 6.68763C5.95837 6.94076 5.75316 7.14596 5.50003 7.14596C5.2469 7.14596 5.0417 6.94076 5.0417 6.68763C5.0417 6.4345 5.2469 6.2293 5.50003 6.2293C5.75316 6.2293 5.95837 6.4345 5.95837 6.68763ZM7.33346 7.14596C7.58659 7.14596 7.79179 6.94076 7.79179 6.68763C7.79179 6.4345 7.58659 6.2293 7.33346 6.2293C7.08033 6.2293 6.87512 6.4345 6.87512 6.68763C6.87512 6.94076 7.08033 7.14596 7.33346 7.14596Z" fill="#111111"/>
</svg>
