<svg width="25" height="24" viewBox="0 0 25 24" fill="none" xmlns="http://www.w3.org/2000/svg">
<rect x="2.5" y="2" width="20" height="20" rx="10" fill="#A4BFED"/>
<path fill-rule="evenodd" clip-rule="evenodd" d="M12.5 1.25C6.56294 1.25 1.75 6.06294 1.75 12C1.75 17.9371 6.56294 22.75 12.5 22.75C18.4371 22.75 23.25 17.9371 23.25 12C23.25 6.06294 18.4371 1.25 12.5 1.25ZM3.25 12C3.25 6.89137 7.39137 2.75 12.5 2.75C17.6086 2.75 21.75 6.89137 21.75 12C21.75 17.1086 17.6086 21.25 12.5 21.25C7.39137 21.25 3.25 17.1086 3.25 12ZM9.09919 14.5496C8.85042 14.2184 8.38027 14.1516 8.04908 14.4003C7.71789 14.6491 7.65107 15.1192 7.89984 15.4504C8.9476 16.8454 10.6182 17.75 12.4999 17.75C14.3816 17.75 16.0522 16.8454 17.0999 15.4504C17.3487 15.1192 17.2819 14.6491 16.9507 14.4003C16.6195 14.1516 16.1493 14.2184 15.9006 14.5496C15.1239 15.5835 13.8898 16.25 12.4999 16.25C11.1099 16.25 9.87583 15.5835 9.09919 14.5496ZM10.5 10C10.5 10.5523 10.0523 11 9.5 11C8.94772 11 8.5 10.5523 8.5 10C8.5 9.44771 8.94772 9 9.5 9C10.0523 9 10.5 9.44771 10.5 10ZM15.5 11C16.0523 11 16.5 10.5523 16.5 10C16.5 9.44771 16.0523 9 15.5 9C14.9477 9 14.5 9.44771 14.5 10C14.5 10.5523 14.9477 11 15.5 11Z" fill="#363636"/>
</svg>
