<svg width="50" height="22" viewBox="0 0 50 22" fill="none" xmlns="http://www.w3.org/2000/svg">
<rect width="50" height="22" rx="11" fill="#FFDB72"/>
<mask id="path-2-outside-1_855_4392" maskUnits="userSpaceOnUse" x="5" y="5" width="40" height="16" fill="black">
<rect fill="white" x="5" y="5" width="40" height="16"/>
<path d="M7.848 10.274L6.294 10.414L6.196 9.28L7.848 9.126V6.354H9.066V9.028L10.928 8.86L11.026 9.994L9.066 10.162V15.076L10.788 14.838L10.886 16L7.848 16.364V10.274ZM11.8836 10.974L13.0736 10.792L13.7176 15.202L16.2376 15.132L16.4896 10.022L11.7436 10.106L11.7576 9L17.7496 8.902L17.3716 16.196L12.6956 16.35L11.8836 10.974ZM23.7291 10.26L20.9851 10.022L20.4951 14.838L23.2671 15.104L23.1271 16.224L19.1651 15.846L19.9211 8.776L23.7011 9.126L23.6031 5.304H24.8351L25.1011 16.294H23.8831L23.7291 10.26ZM31.5993 15.034L27.6653 16.336L26.5173 12.458L29.8913 11.086L30.2973 12.108L27.9173 13.06L28.4773 14.852L31.3473 13.942L30.4653 10.008L26.9233 10.694L26.6573 9.588L31.4173 8.706L33.0693 16L31.8793 16.336L31.5993 15.034ZM39.7287 8.748L40.8767 9.224L36.0887 19.836L34.9407 19.388L39.7287 8.748ZM33.5267 9.266L34.6747 8.762L37.0547 14.306L35.9207 14.838L33.5267 9.266ZM42.3694 5.99H44.0914L43.7974 13.494H42.6634L42.3694 5.99ZM42.3974 14.642H44.0774V16.322H42.3974V14.642Z"/>
</mask>
<path d="M7.848 10.274L6.294 10.414L6.196 9.28L7.848 9.126V6.354H9.066V9.028L10.928 8.86L11.026 9.994L9.066 10.162V15.076L10.788 14.838L10.886 16L7.848 16.364V10.274ZM11.8836 10.974L13.0736 10.792L13.7176 15.202L16.2376 15.132L16.4896 10.022L11.7436 10.106L11.7576 9L17.7496 8.902L17.3716 16.196L12.6956 16.35L11.8836 10.974ZM23.7291 10.26L20.9851 10.022L20.4951 14.838L23.2671 15.104L23.1271 16.224L19.1651 15.846L19.9211 8.776L23.7011 9.126L23.6031 5.304H24.8351L25.1011 16.294H23.8831L23.7291 10.26ZM31.5993 15.034L27.6653 16.336L26.5173 12.458L29.8913 11.086L30.2973 12.108L27.9173 13.06L28.4773 14.852L31.3473 13.942L30.4653 10.008L26.9233 10.694L26.6573 9.588L31.4173 8.706L33.0693 16L31.8793 16.336L31.5993 15.034ZM39.7287 8.748L40.8767 9.224L36.0887 19.836L34.9407 19.388L39.7287 8.748ZM33.5267 9.266L34.6747 8.762L37.0547 14.306L35.9207 14.838L33.5267 9.266ZM42.3694 5.99H44.0914L43.7974 13.494H42.6634L42.3694 5.99ZM42.3974 14.642H44.0774V16.322H42.3974V14.642Z" fill="#404040"/>
<path d="M7.848 10.274H8.048V10.0552L7.83005 10.0748L7.848 10.274ZM6.294 10.414L6.09474 10.4312L6.11203 10.6312L6.31195 10.6132L6.294 10.414ZM6.196 9.28L6.17744 9.08086L5.97964 9.0993L5.99674 9.29722L6.196 9.28ZM7.848 9.126L7.86656 9.32514L8.048 9.30822V9.126H7.848ZM7.848 6.354V6.154H7.648V6.354H7.848ZM9.066 6.354H9.266V6.154H9.066V6.354ZM9.066 9.028H8.866V9.24686L9.08397 9.22719L9.066 9.028ZM10.928 8.86L11.1273 8.84278L11.11 8.64277L10.91 8.66081L10.928 8.86ZM11.026 9.994L11.0431 10.1933L11.2425 10.1762L11.2253 9.97678L11.026 9.994ZM9.066 10.162L9.04892 9.96273L8.866 9.97841V10.162H9.066ZM9.066 15.076H8.866V15.3055L9.09338 15.2741L9.066 15.076ZM10.788 14.838L10.9873 14.8212L10.9696 14.611L10.7606 14.6399L10.788 14.838ZM10.886 16L10.9098 16.1986L11.1015 16.1756L11.0853 15.9832L10.886 16ZM7.848 16.364H7.648V16.5894L7.87179 16.5626L7.848 16.364ZM7.83005 10.0748L6.27605 10.2148L6.31195 10.6132L7.86595 10.4732L7.83005 10.0748ZM6.49326 10.3968L6.39526 9.26278L5.99674 9.29722L6.09474 10.4312L6.49326 10.3968ZM6.21456 9.47914L7.86656 9.32514L7.82944 8.92686L6.17744 9.08086L6.21456 9.47914ZM8.048 9.126V6.354H7.648V9.126H8.048ZM7.848 6.554H9.066V6.154H7.848V6.554ZM8.866 6.354V9.028H9.266V6.354H8.866ZM9.08397 9.22719L10.946 9.05919L10.91 8.66081L9.04803 8.82881L9.08397 9.22719ZM10.7287 8.87722L10.8267 10.0112L11.2253 9.97678L11.1273 8.84278L10.7287 8.87722ZM11.0089 9.79473L9.04892 9.96273L9.08308 10.3613L11.0431 10.1933L11.0089 9.79473ZM8.866 10.162V15.076H9.266V10.162H8.866ZM9.09338 15.2741L10.8154 15.0361L10.7606 14.6399L9.03862 14.8779L9.09338 15.2741ZM10.5887 14.8548L10.6867 16.0168L11.0853 15.9832L10.9873 14.8212L10.5887 14.8548ZM10.8622 15.8014L7.82421 16.1654L7.87179 16.5626L10.9098 16.1986L10.8622 15.8014ZM8.048 16.364V10.274H7.648V16.364H8.048ZM11.8836 10.974L11.8534 10.7763L11.656 10.8065L11.6859 11.0039L11.8836 10.974ZM13.0736 10.792L13.2715 10.7631L13.2424 10.5639L13.0434 10.5943L13.0736 10.792ZM13.7176 15.202L13.5197 15.2309L13.5454 15.4069L13.7232 15.4019L13.7176 15.202ZM16.2376 15.132L16.2432 15.3319L16.4282 15.3268L16.4374 15.1419L16.2376 15.132ZM16.4896 10.022L16.6894 10.0319L16.6999 9.81825L16.4861 9.82203L16.4896 10.022ZM11.7436 10.106L11.5436 10.1035L11.541 10.3096L11.7471 10.306L11.7436 10.106ZM11.7576 9L11.7543 8.80003L11.5601 8.8032L11.5576 8.99747L11.7576 9ZM17.7496 8.902L17.9493 8.91235L17.9604 8.69852L17.7463 8.70203L17.7496 8.902ZM17.3716 16.196L17.3782 16.3959L17.5618 16.3898L17.5713 16.2064L17.3716 16.196ZM12.6956 16.35L12.4979 16.3799L12.5244 16.5557L12.7022 16.5499L12.6956 16.35ZM11.9138 11.1717L13.1038 10.9897L13.0434 10.5943L11.8534 10.7763L11.9138 11.1717ZM12.8757 10.8209L13.5197 15.2309L13.9155 15.1731L13.2715 10.7631L12.8757 10.8209ZM13.7232 15.4019L16.2432 15.3319L16.2321 14.9321L13.7121 15.0021L13.7232 15.4019ZM16.4374 15.1419L16.6894 10.0319L16.2899 10.0121L16.0379 15.1221L16.4374 15.1419ZM16.4861 9.82203L11.7401 9.90603L11.7471 10.306L16.4931 10.222L16.4861 9.82203ZM11.9436 10.1085L11.9576 9.00253L11.5576 8.99747L11.5436 10.1035L11.9436 10.1085ZM11.7609 9.19997L17.7529 9.10197L17.7463 8.70203L11.7543 8.80003L11.7609 9.19997ZM17.5499 8.89165L17.1719 16.1856L17.5713 16.2064L17.9493 8.91235L17.5499 8.89165ZM17.365 15.9961L12.689 16.1501L12.7022 16.5499L17.3782 16.3959L17.365 15.9961ZM12.8934 16.3201L12.0814 10.9441L11.6859 11.0039L12.4979 16.3799L12.8934 16.3201ZM23.7291 10.26L23.9291 10.2549L23.9245 10.0762L23.7464 10.0607L23.7291 10.26ZM20.9851 10.022L21.0024 9.82275L20.8061 9.80572L20.7862 10.0018L20.9851 10.022ZM20.4951 14.838L20.2962 14.8178L20.2758 15.0179L20.476 15.0371L20.4951 14.838ZM23.2671 15.104L23.4656 15.1288L23.4911 14.9246L23.2862 14.9049L23.2671 15.104ZM23.1271 16.224L23.1081 16.4231L23.3015 16.4415L23.3256 16.2488L23.1271 16.224ZM19.1651 15.846L18.9663 15.8247L18.9448 16.0259L19.1461 16.0451L19.1651 15.846ZM19.9211 8.776L19.9396 8.57685L19.7432 8.55867L19.7223 8.75473L19.9211 8.776ZM23.7011 9.126L23.6827 9.32515L23.9068 9.3459L23.9011 9.12087L23.7011 9.126ZM23.6031 5.304V5.104H23.3979L23.4032 5.30913L23.6031 5.304ZM24.8351 5.304L25.0351 5.29916L25.0304 5.104H24.8351V5.304ZM25.1011 16.294V16.494H25.306L25.3011 16.2892L25.1011 16.294ZM23.8831 16.294L23.6832 16.2991L23.6882 16.494H23.8831V16.294ZM23.7464 10.0607L21.0024 9.82275L20.9679 10.2213L23.7119 10.4593L23.7464 10.0607ZM20.7862 10.0018L20.2962 14.8178L20.6941 14.8582L21.1841 10.0422L20.7862 10.0018ZM20.476 15.0371L23.248 15.3031L23.2862 14.9049L20.5142 14.6389L20.476 15.0371ZM23.0687 15.0792L22.9287 16.1992L23.3256 16.2488L23.4656 15.1288L23.0687 15.0792ZM23.1461 16.0249L19.1841 15.6469L19.1461 16.0451L23.1081 16.4231L23.1461 16.0249ZM19.364 15.8673L20.12 8.79726L19.7223 8.75473L18.9663 15.8247L19.364 15.8673ZM19.9027 8.97515L23.6827 9.32515L23.7196 8.92685L19.9396 8.57685L19.9027 8.97515ZM23.9011 9.12087L23.8031 5.29887L23.4032 5.30913L23.5012 9.13113L23.9011 9.12087ZM23.6031 5.504H24.8351V5.104H23.6031V5.504ZM24.6352 5.30884L24.9012 16.2988L25.3011 16.2892L25.0351 5.29916L24.6352 5.30884ZM25.1011 16.094H23.8831V16.494H25.1011V16.094ZM24.0831 16.2889L23.9291 10.2549L23.5292 10.2651L23.6832 16.2991L24.0831 16.2889ZM31.5993 15.034L31.7949 14.992L31.748 14.7741L31.5365 14.8441L31.5993 15.034ZM27.6653 16.336L27.4736 16.3928L27.5322 16.5907L27.7282 16.5259L27.6653 16.336ZM26.5173 12.458L26.442 12.2727L26.2741 12.341L26.3256 12.5148L26.5173 12.458ZM29.8913 11.086L30.0772 11.0122L30.0028 10.8248L29.816 10.9007L29.8913 11.086ZM30.2973 12.108L30.3716 12.2937L30.5569 12.2196L30.4832 12.0342L30.2973 12.108ZM27.9173 13.06L27.8431 12.8743L27.6712 12.943L27.7264 13.1197L27.9173 13.06ZM28.4773 14.852L28.2864 14.9117L28.3463 15.1033L28.5378 15.0426L28.4773 14.852ZM31.3473 13.942L31.4078 14.1326L31.5826 14.0772L31.5425 13.8982L31.3473 13.942ZM30.4653 10.008L30.6605 9.96425L30.618 9.77472L30.4273 9.81165L30.4653 10.008ZM26.9233 10.694L26.7289 10.7408L26.7736 10.9267L26.9614 10.8904L26.9233 10.694ZM26.6573 9.588L26.6209 9.39135L26.4136 9.42976L26.4629 9.63477L26.6573 9.588ZM31.4173 8.706L31.6124 8.66182L31.5699 8.47432L31.3809 8.50935L31.4173 8.706ZM33.0693 16L33.1237 16.1925L33.3063 16.1409L33.2644 15.9558L33.0693 16ZM31.8793 16.336L31.6838 16.378L31.7286 16.5864L31.9337 16.5285L31.8793 16.336ZM31.5365 14.8441L27.6025 16.1461L27.7282 16.5259L31.6622 15.2239L31.5365 14.8441ZM27.8571 16.2792L26.7091 12.4012L26.3256 12.5148L27.4736 16.3928L27.8571 16.2792ZM26.5927 12.6433L29.9667 11.2713L29.816 10.9007L26.442 12.2727L26.5927 12.6433ZM29.7055 11.1598L30.1115 12.1818L30.4832 12.0342L30.0772 11.0122L29.7055 11.1598ZM30.2231 11.9223L27.8431 12.8743L27.9916 13.2457L30.3716 12.2937L30.2231 11.9223ZM27.7264 13.1197L28.2864 14.9117L28.6682 14.7923L28.1082 13.0003L27.7264 13.1197ZM28.5378 15.0426L31.4078 14.1326L31.2869 13.7514L28.4169 14.6614L28.5378 15.0426ZM31.5425 13.8982L30.6605 9.96425L30.2702 10.0518L31.1522 13.9858L31.5425 13.8982ZM30.4273 9.81165L26.8853 10.4976L26.9614 10.8904L30.5034 10.2044L30.4273 9.81165ZM27.1178 10.6472L26.8518 9.54123L26.4629 9.63477L26.7289 10.7408L27.1178 10.6472ZM26.6938 9.78465L31.4538 8.90265L31.3809 8.50935L26.6209 9.39135L26.6938 9.78465ZM31.2223 8.75018L32.8743 16.0442L33.2644 15.9558L31.6124 8.66182L31.2223 8.75018ZM33.015 15.8075L31.825 16.1435L31.9337 16.5285L33.1237 16.1925L33.015 15.8075ZM32.0749 16.294L31.7949 14.992L31.4038 15.076L31.6838 16.378L32.0749 16.294ZM39.7287 8.748L39.8053 8.56325L39.626 8.4889L39.5464 8.66593L39.7287 8.748ZM40.8767 9.224L41.059 9.30625L41.1439 9.11825L40.9533 9.03925L40.8767 9.224ZM36.0887 19.836L36.016 20.0223L36.1929 20.0914L36.271 19.9183L36.0887 19.836ZM34.9407 19.388L34.7584 19.3059L34.672 19.4978L34.868 19.5743L34.9407 19.388ZM33.5267 9.266L33.4463 9.08287L33.2646 9.16264L33.343 9.34495L33.5267 9.266ZM34.6747 8.762L34.8585 8.6831L34.779 8.49781L34.5943 8.57887L34.6747 8.762ZM37.0547 14.306L37.1397 14.4871L37.3148 14.4049L37.2385 14.2271L37.0547 14.306ZM35.9207 14.838L35.737 14.917L35.8186 15.1068L36.0057 15.0191L35.9207 14.838ZM39.6521 8.93275L40.8001 9.40875L40.9533 9.03925L39.8053 8.56325L39.6521 8.93275ZM40.6944 9.14175L35.9064 19.7537L36.271 19.9183L41.059 9.30625L40.6944 9.14175ZM36.1614 19.6497L35.0134 19.2017L34.868 19.5743L36.016 20.0223L36.1614 19.6497ZM35.1231 19.4701L39.9111 8.83007L39.5464 8.66593L34.7584 19.3059L35.1231 19.4701ZM33.6071 9.44913L34.7551 8.94513L34.5943 8.57887L33.4463 9.08287L33.6071 9.44913ZM34.491 8.8409L36.871 14.3849L37.2385 14.2271L34.8585 8.6831L34.491 8.8409ZM36.9698 14.1249L35.8358 14.6569L36.0057 15.0191L37.1397 14.4871L36.9698 14.1249ZM36.1045 14.759L33.7105 9.18705L33.343 9.34495L35.737 14.917L36.1045 14.759ZM42.3694 5.99V5.79H42.1614L42.1695 5.99783L42.3694 5.99ZM44.0914 5.99L44.2912 5.99783L44.2994 5.79H44.0914V5.99ZM43.7974 13.494V13.694H43.9897L43.9972 13.5018L43.7974 13.494ZM42.6634 13.494L42.4635 13.5018L42.4711 13.694H42.6634V13.494ZM42.3974 14.642V14.442H42.1974V14.642H42.3974ZM44.0774 14.642H44.2774V14.442H44.0774V14.642ZM44.0774 16.322V16.522H44.2774V16.322H44.0774ZM42.3974 16.322H42.1974V16.522H42.3974V16.322ZM42.3694 6.19H44.0914V5.79H42.3694V6.19ZM43.8915 5.98217L43.5975 13.4862L43.9972 13.5018L44.2912 5.99783L43.8915 5.98217ZM43.7974 13.294H42.6634V13.694H43.7974V13.294ZM42.8632 13.4862L42.5692 5.98217L42.1695 5.99783L42.4635 13.5018L42.8632 13.4862ZM42.3974 14.842H44.0774V14.442H42.3974V14.842ZM43.8774 14.642V16.322H44.2774V14.642H43.8774ZM44.0774 16.122H42.3974V16.522H44.0774V16.122ZM42.5974 16.322V14.642H42.1974V16.322H42.5974Z" fill="#404040" mask="url(#path-2-outside-1_855_4392)"/>
</svg>
