<svg width="18" height="18" viewBox="0 0 18 18" fill="none" xmlns="http://www.w3.org/2000/svg">
<path fill-rule="evenodd" clip-rule="evenodd" d="M6.75 0.75C6.75 0.335786 6.41421 0 6 0C5.58579 0 5.25 0.335786 5.25 0.75V0.893495C4.76761 0.970013 4.33448 1.09017 3.92707 1.28286C2.76633 1.83185 1.83185 2.76633 1.28286 3.92707C0.996935 4.53161 0.870725 5.19275 0.809801 5.98747C0.749993 6.76763 0.749996 7.7359 0.75 8.96867V8.96868V9V9.03132V9.03133C0.749996 10.2641 0.749993 11.2324 0.809801 12.0125C0.870725 12.8073 0.996935 13.4684 1.28286 14.0729C1.83185 15.2337 2.76633 16.1681 3.92707 16.7171C4.53161 17.0031 5.19275 17.1293 5.98747 17.1902C6.76754 17.25 7.73567 17.25 8.96823 17.25H8.96828H8.96833H8.96838H8.96843H8.96848H8.96854H8.96859H8.96864H8.96869H9H9.03131H9.03136H9.03141H9.03146H9.03152H9.03157H9.03162H9.03167H9.03172H9.03177C10.2643 17.25 11.2325 17.25 12.0125 17.1902C12.8073 17.1293 13.4684 17.0031 14.0729 16.7171C15.2337 16.1681 16.1681 15.2337 16.7171 14.0729C17.0031 13.4684 17.1293 12.8073 17.1902 12.0125C17.25 11.2325 17.25 10.2643 17.25 9.03177V9.03172V9.03167V9.03162V9.03157V9.03152V9.03146V9.03141V9.03136V9.03131V9V8.96869V8.96864V8.96859V8.96854V8.96848V8.96843V8.96838V8.96833V8.96828V8.96823C17.25 7.73567 17.25 6.76754 17.1902 5.98747C17.1293 5.19275 17.0031 4.53161 16.7171 3.92707C16.1681 2.76633 15.2337 1.83185 14.0729 1.28286C13.6655 1.09017 13.2324 0.970013 12.75 0.893495V0.75C12.75 0.335786 12.4142 0 12 0C11.5858 0 11.25 0.335786 11.25 0.75V0.770263C10.6218 0.749994 9.89083 0.749997 9.03132 0.75H9.03132L9 0.75L8.96868 0.75H8.96867C8.10917 0.749997 7.37824 0.749994 6.75 0.770263V0.75ZM11.25 3V2.27101C10.6459 2.25027 9.9166 2.25 9 2.25C8.0834 2.25 7.35407 2.25027 6.75 2.27101V3C6.75 3.41421 6.41421 3.75 6 3.75C5.58579 3.75 5.25 3.41421 5.25 3V2.41796C4.98259 2.47394 4.76355 2.54655 4.5684 2.63884C3.72137 3.03946 3.03946 3.72137 2.63884 4.5684C2.46392 4.93825 2.3597 5.39395 2.30541 6.10212C2.25051 6.81825 2.25 7.72913 2.25 9C2.25 10.2709 2.25051 11.1817 2.30541 11.8979C2.3597 12.606 2.46392 13.0617 2.63884 13.4316C3.03946 14.2786 3.72137 14.9605 4.5684 15.3612C4.93825 15.5361 5.39395 15.6403 6.10212 15.6946C6.81825 15.7495 7.72913 15.75 9 15.75C10.2709 15.75 11.1817 15.7495 11.8979 15.6946C12.606 15.6403 13.0617 15.5361 13.4316 15.3612C14.2786 14.9605 14.9605 14.2786 15.3612 13.4316C15.5361 13.0617 15.6403 12.606 15.6946 11.8979C15.7495 11.1817 15.75 10.2709 15.75 9C15.75 7.72913 15.7495 6.81825 15.6946 6.10212C15.6403 5.39395 15.5361 4.93825 15.3612 4.5684C14.9605 3.72137 14.2786 3.03946 13.4316 2.63884C13.2365 2.54655 13.0174 2.47394 12.75 2.41796V3C12.75 3.41421 12.4142 3.75 12 3.75C11.5858 3.75 11.25 3.41421 11.25 3ZM5.25 5.25C4.83579 5.25 4.5 5.58579 4.5 6C4.5 6.41421 4.83579 6.75 5.25 6.75H12.75C13.1642 6.75 13.5 6.41421 13.5 6C13.5 5.58579 13.1642 5.25 12.75 5.25H5.25ZM6.75 9.75C6.75 10.1642 6.41421 10.5 6 10.5C5.58579 10.5 5.25 10.1642 5.25 9.75C5.25 9.33579 5.58579 9 6 9C6.41421 9 6.75 9.33579 6.75 9.75ZM6 13.5C6.41421 13.5 6.75 13.1642 6.75 12.75C6.75 12.3358 6.41421 12 6 12C5.58579 12 5.25 12.3358 5.25 12.75C5.25 13.1642 5.58579 13.5 6 13.5ZM9.75 12.75C9.75 13.1642 9.41421 13.5 9 13.5C8.58579 13.5 8.25 13.1642 8.25 12.75C8.25 12.3358 8.58579 12 9 12C9.41421 12 9.75 12.3358 9.75 12.75ZM12 13.5C12.4142 13.5 12.75 13.1642 12.75 12.75C12.75 12.3358 12.4142 12 12 12C11.5858 12 11.25 12.3358 11.25 12.75C11.25 13.1642 11.5858 13.5 12 13.5ZM9.75 9.75C9.75 10.1642 9.41421 10.5 9 10.5C8.58579 10.5 8.25 10.1642 8.25 9.75C8.25 9.33579 8.58579 9 9 9C9.41421 9 9.75 9.33579 9.75 9.75ZM12 10.5C12.4142 10.5 12.75 10.1642 12.75 9.75C12.75 9.33579 12.4142 9 12 9C11.5858 9 11.25 9.33579 11.25 9.75C11.25 10.1642 11.5858 10.5 12 10.5Z" fill="#FAFAFA"/>
</svg>
