<svg width="375" height="62" viewBox="0 0 375 62" fill="none" xmlns="http://www.w3.org/2000/svg">
<g clip-path="url(#clip0_993_4897)">
<rect width="375" height="62" fill="#BDD4FA"/>
<rect x="290.795" y="-12.6304" width="87" height="23" rx="11.5" transform="rotate(36.1031 290.795 -12.6304)" fill="#D1E2FE"/>
<rect x="292.924" y="-10.4585" width="20" height="20" rx="10" transform="rotate(36.1031 292.924 -10.4585)" fill="#FFE156"/>
<path d="M292.467 -3.50904C292.714 -3.95427 293.391 -3.78779 293.403 -3.27862L293.481 -0.143134C293.49 0.210424 293.853 0.443353 294.178 0.303986L298.167 -1.40632C298.516 -1.55589 298.898 -1.27748 298.862 -0.899601L298.453 3.42122C298.419 3.77331 298.752 4.0478 299.091 3.94812L302.101 3.06414C302.589 2.92059 302.955 3.51422 302.606 3.88582L296.788 10.0928C296.615 10.277 296.333 10.3036 296.129 10.1549L288.477 4.57453C288.273 4.42579 288.212 4.14836 288.334 3.92771L292.467 -3.50904Z" fill="#FAA3E0"/>
<path d="M304.953 15.6413L309.952 8.78624L312.528 10.6644C314.099 11.8107 314.245 13.3816 313.285 14.6976C312.325 16.0137 310.782 16.3391 309.201 15.1859L307.875 14.2192L306.184 16.5389L304.953 15.6413ZM308.614 13.2061L309.769 14.0485C310.697 14.7252 311.494 14.5083 312.025 13.7793C312.564 13.0407 312.513 12.2351 311.585 11.5584L310.43 10.7159L308.614 13.2061ZM310.937 20.0053L315.936 13.1503L318.511 15.0285C320.083 16.1748 320.284 17.6699 319.331 18.9765C318.651 19.9091 317.72 20.2896 316.677 20.0293L316.173 23.8239L314.8 22.8226L315.285 19.333L313.997 18.3939L312.168 20.903L310.937 20.0053ZM314.75 17.3619L315.905 18.2043C316.833 18.881 317.54 18.7872 318.071 18.0581C318.603 17.329 318.497 16.5991 317.569 15.9224L316.414 15.08L314.75 17.3619ZM316.987 24.4177L321.986 17.5627L326.446 20.815L325.693 21.8471L322.465 19.4924L321.097 21.3671L324.089 23.5492L323.337 24.5812L320.345 22.3992L318.977 24.2739L322.225 26.6423L321.465 27.6839L316.987 24.4177ZM327.629 21.6782L329.144 22.783L327.548 29.2479L327.633 29.3101L333.301 25.8144L334.816 26.9192L329.816 33.7742L328.633 32.9111L332.072 28.1959L332.005 28.1475L326.677 31.4559L325.797 30.8137L327.332 24.7105L327.276 24.6691L323.823 29.4032L322.63 28.5332L327.629 21.6782ZM337.315 28.7422L332.316 35.5972L331.085 34.6995L336.085 27.8445L337.315 28.7422ZM342.921 32.83L344.161 33.7346L340.895 38.2131C339.825 39.6807 337.968 39.8789 336.302 38.6636C334.626 37.4414 334.257 35.6204 335.327 34.1528L338.594 29.6744L339.825 30.572L336.634 34.9464C336.006 35.808 336.156 36.8748 337.103 37.5653C338.05 38.2558 339.102 38.066 339.73 37.2043L342.921 32.83ZM345.43 34.6599L346.945 35.7647L345.348 42.2296L345.433 42.2918L351.101 38.7961L352.616 39.9009L347.617 46.7559L346.433 45.8928L349.872 41.1776L349.806 41.1292L344.478 44.4376L343.597 43.7954L345.133 37.6923L345.076 37.6508L341.623 42.3849L340.43 41.5149L345.43 34.6599Z" fill="#FAFAFA"/>
<rect x="232.482" y="43.2437" width="82" height="23" rx="11.5" transform="rotate(36.1031 232.482 43.2437)" fill="#D1E2FE"/>
<rect x="234.611" y="45.4155" width="20" height="20" rx="10" transform="rotate(36.1031 234.611 45.4155)" fill="#FFE156"/>
<path d="M234.154 52.365C234.401 51.9198 235.078 52.0862 235.09 52.5954L235.168 55.7309C235.177 56.0844 235.54 56.3174 235.865 56.178L239.854 54.4677C240.203 54.3181 240.585 54.5965 240.549 54.9744L240.14 59.2952C240.106 59.6473 240.439 59.9218 240.778 59.8221L243.788 58.9382C244.276 58.7946 244.642 59.3882 244.293 59.7598L238.475 65.9668C238.302 66.151 238.02 66.1776 237.816 66.0289L230.164 60.4486C229.96 60.2998 229.899 60.0224 230.022 59.8017L234.154 52.365Z" fill="#FAA3E0"/>
<rect x="200.402" y="-29.4282" width="87" height="23" rx="11.5" transform="rotate(36.1031 200.402 -29.4282)" fill="#D1E2FE"/>
<rect x="202.531" y="-27.2563" width="20" height="20" rx="10" transform="rotate(36.1031 202.531 -27.2563)" fill="#FFE156"/>
<path d="M214.56 -1.1566L219.559 -8.01162L222.134 -6.13341C223.706 -4.98715 223.851 -3.4163 222.892 -2.10021C221.932 -0.784127 220.389 -0.458766 218.808 -1.61193L217.482 -2.57865L215.791 -0.258928L214.56 -1.1566ZM218.221 -3.59175L219.376 -2.74932C220.304 -2.07262 221.101 -2.28955 221.632 -3.0186C222.171 -3.75712 222.12 -4.56277 221.192 -5.23948L220.037 -6.0819L218.221 -3.59175ZM220.544 3.20746L225.543 -3.64755L228.118 -1.76935C229.69 -0.623092 229.89 0.872015 228.938 2.17863C228.257 3.11126 227.327 3.49171 226.284 3.23142L225.78 7.02602L224.407 6.02477L224.892 2.53515L223.604 1.59605L221.774 4.10513L220.544 3.20746ZM224.357 0.564007L225.512 1.40644C226.44 2.08314 227.147 1.9893 227.678 1.26025C228.21 0.531192 228.104 -0.198706 227.176 -0.875412L226.021 -1.71784L224.357 0.564007ZM226.594 7.61986L231.593 0.764846L236.053 4.01718L235.3 5.04922L232.071 2.69456L230.704 4.56927L233.696 6.7513L232.943 7.78334L229.951 5.60131L228.584 7.47603L231.832 9.8445L231.072 10.886L226.594 7.61986ZM237.236 4.88032L238.751 5.98515L237.155 12.4501L237.24 12.5122L242.908 9.01652L244.423 10.1213L239.423 16.9764L238.24 16.1132L241.679 11.398L241.612 11.3497L236.284 14.658L235.404 14.0158L236.939 7.91269L236.882 7.87126L233.43 12.6054L232.237 11.7353L237.236 4.88032ZM246.922 11.9443L241.923 18.7993L240.692 17.9016L245.691 11.0466L246.922 11.9443ZM252.527 16.0322L253.768 16.9367L250.502 21.4152C249.431 22.8828 247.575 23.0811 245.909 21.8658C244.233 20.6436 243.864 18.8226 244.934 17.355L248.2 12.8765L249.431 13.7742L246.241 18.1485C245.613 19.0101 245.763 20.077 246.71 20.7675C247.657 21.458 248.709 21.2681 249.337 20.4065L252.527 16.0322ZM255.037 17.862L256.551 18.9669L254.955 25.4318L255.04 25.4939L260.708 21.9982L262.223 23.103L257.224 29.9581L256.04 29.0949L259.479 24.3797L259.413 24.3314L254.084 27.6397L253.204 26.9975L254.74 20.8944L254.683 20.853L251.23 25.5871L250.037 24.717L255.037 17.862Z" fill="#FAFAFA"/>
<rect x="152.089" y="27.4463" width="87" height="23" rx="11.5" transform="rotate(36.1031 152.089 27.4463)" fill="#D1E2FE"/>
<rect x="154.218" y="29.6182" width="20" height="20" rx="10" transform="rotate(36.1031 154.218 29.6182)" fill="#FFE156"/>
<path d="M153.76 36.5676C154.008 36.1224 154.685 36.2889 154.697 36.798L154.775 39.9335C154.784 40.2871 155.147 40.52 155.472 40.3806L159.461 38.6703C159.81 38.5208 160.192 38.7992 160.156 39.1771L159.746 43.4979C159.713 43.85 160.046 44.1245 160.385 44.0248L163.394 43.1408C163.883 42.9972 164.248 43.5909 163.9 43.9625L158.082 50.1695C157.909 50.3536 157.626 50.3803 157.422 50.2315L149.771 44.6512C149.567 44.5025 149.506 44.225 149.628 44.0044L153.76 36.5676Z" fill="#FAA3E0"/>
<path d="M166.247 55.7179L171.246 48.8629L173.821 50.7411C175.393 51.8874 175.538 53.4582 174.579 54.7743C173.619 56.0904 172.076 56.4157 170.495 55.2626L169.169 54.2959L167.478 56.6156L166.247 55.7179ZM169.908 53.2828L171.063 54.1252C171.991 54.8019 172.788 54.585 173.319 53.8559C173.858 53.1174 173.807 52.3117 172.879 51.635L171.724 50.7926L169.908 53.2828ZM172.231 60.082L177.23 53.227L179.805 55.1052C181.377 56.2514 181.578 57.7465 180.625 59.0531C179.944 59.9858 179.014 60.3662 177.971 60.1059L177.467 63.9005L176.094 62.8993L176.579 59.4097L175.291 58.4706L173.461 60.9796L172.231 60.082ZM176.044 57.4385L177.199 58.2809C178.127 58.9577 178.834 58.8638 179.365 58.1348C179.897 57.4057 179.791 56.6758 178.863 55.9991L177.708 55.1567L176.044 57.4385ZM178.281 64.4944L183.28 57.6394L187.74 60.8917L186.987 61.9237L183.758 59.5691L182.391 61.4438L185.383 63.6258L184.63 64.6579L181.638 62.4758L180.271 64.3505L183.519 66.719L182.759 67.7605L178.281 64.4944ZM188.923 61.7548L190.438 62.8597L188.842 69.3246L188.927 69.3867L194.595 65.891L196.11 66.9959L191.11 73.8509L189.927 72.9877L193.366 68.2725L193.299 68.2242L187.971 71.5325L187.091 70.8903L188.626 64.7872L188.569 64.7458L185.117 69.4799L183.924 68.6099L188.923 61.7548ZM198.609 68.8188L193.61 75.6738L192.379 74.7762L197.378 67.9211L198.609 68.8188ZM204.214 72.9067L205.455 73.8112L202.189 78.2897C201.118 79.7573 199.262 79.9556 197.596 78.7403C195.92 77.5181 195.551 75.6971 196.621 74.2295L199.887 69.751L201.118 70.6487L197.928 75.023C197.3 75.8846 197.45 76.9515 198.397 77.642C199.344 78.3325 200.396 78.1426 201.024 77.281L204.214 72.9067ZM206.724 74.7365L208.238 75.8414L206.642 82.3063L206.727 82.3684L212.395 78.8727L213.91 79.9776L208.911 86.8326L207.727 85.9694L211.166 81.2542L211.1 81.2059L205.771 84.5142L204.891 83.872L206.427 77.7689L206.37 77.7275L202.917 82.4616L201.724 81.5916L206.724 74.7365Z" fill="#FAFAFA"/>
<rect x="345.542" y="-40.498" width="82" height="23" rx="11.5" transform="rotate(36.1031 345.542 -40.498)" fill="#D1E2FE"/>
<path d="M359.7 -12.2264L364.699 -19.0814L367.275 -17.2032C368.846 -16.057 368.992 -14.4861 368.032 -13.17C367.072 -11.854 365.529 -11.5286 363.948 -12.6818L362.623 -13.6485L360.931 -11.3288L359.7 -12.2264ZM363.361 -14.6616L364.517 -13.8191C365.444 -13.1424 366.241 -13.3594 366.772 -14.0884C367.311 -14.8269 367.26 -15.6326 366.333 -16.3093L365.177 -17.1517L363.361 -14.6616ZM365.684 -7.86236L370.683 -14.7174L373.259 -12.8392C374.83 -11.6929 375.031 -10.1978 374.078 -8.89119C373.398 -7.95857 372.468 -7.57812 371.425 -7.8384L370.92 -4.04381L369.547 -5.04505L370.032 -8.53468L368.745 -9.47378L366.915 -6.96469L365.684 -7.86236ZM369.497 -10.5058L370.652 -9.66339C371.58 -8.98668 372.287 -9.08052 372.819 -9.80958C373.35 -10.5386 373.244 -11.2685 372.317 -11.9452L371.161 -12.7877L369.497 -10.5058ZM371.734 -3.44996L376.733 -10.305L381.193 -7.05265L380.44 -6.02061L377.212 -8.37527L375.844 -6.50055L378.836 -4.31852L378.084 -3.28648L375.092 -5.46851L373.724 -3.5938L376.972 -1.22533L376.213 -0.18382L371.734 -3.44996ZM382.376 -6.1895L383.891 -5.08468L382.295 1.38024L382.38 1.44238L388.048 -2.05331L389.563 -0.948483L384.564 5.90653L383.38 5.04339L386.819 0.328197L386.752 0.279861L381.424 3.58818L380.544 2.946L382.08 -3.15713L382.023 -3.19856L378.57 1.53557L377.377 0.665515L382.376 -6.1895ZM392.062 0.87448L387.063 7.7295L385.832 6.83183L390.832 -0.0231909L392.062 0.87448ZM397.668 4.96234L398.908 5.86691L395.642 10.3454C394.572 11.813 392.715 12.0113 391.049 10.796C389.373 9.57375 389.004 7.75274 390.075 6.28516L393.341 1.80668L394.572 2.70435L391.381 7.07868C390.753 7.94029 390.903 9.00713 391.85 9.69764C392.797 10.3882 393.849 10.1983 394.478 9.33667L397.668 4.96234ZM400.177 6.7922L401.692 7.89703L400.095 14.3619L400.18 14.4241L405.848 10.9284L407.363 12.0332L402.364 18.8882L401.18 18.0251L404.619 13.3099L404.553 13.2616L399.225 16.5699L398.344 15.9277L399.88 9.82458L399.823 9.78314L396.37 14.5173L395.177 13.6472L400.177 6.7922Z" fill="#FAFAFA"/>
<rect width="287" height="62" fill="url(#paint0_linear_993_4897)"/>
<path d="M31.7031 22.4551V23.7266H20.4102V22.4551H31.7031ZM30.7188 14.0059V15.2227H28.9141V19.1602H30.6777V20.3633H21.3809V19.1602H23.1172V15.2227H21.3398V14.0059H30.7188ZM24.6348 19.1602H27.4102V15.2227H24.6348V19.1602ZM42.5247 12.8574V25.2305H41.0208V12.8574H42.5247ZM38.7239 13.9375V18.5723H34.472V21.0605C36.4202 21.0469 38.1018 20.9512 40.0227 20.623L40.1595 21.8672C38.054 22.2363 36.2083 22.3047 33.9934 22.3047H32.9134V17.3691H37.179V15.168H32.8997V13.9375H38.7239ZM50.5845 14.0195V22.209H44.7056V14.0195H50.5845ZM46.2095 15.209V20.9922H49.108V15.209H46.2095ZM54.3306 12.8574V25.2305H52.7994V12.8574H54.3306ZM59.3006 13.541C60.8934 13.5273 62.1512 14.4639 62.4725 15.8516H64.701V12.8574H66.2186V19.8984H64.701V17.0957H62.4862C62.1922 18.5176 60.9207 19.4746 59.3006 19.4746C57.4276 19.4746 56.033 18.2441 56.033 16.5078C56.033 14.7715 57.4276 13.5273 59.3006 13.541ZM59.3006 14.8125C58.2479 14.7988 57.4823 15.4824 57.4823 16.5078C57.4823 17.5469 58.2479 18.1895 59.3006 18.2031C60.326 18.1895 61.078 17.5469 61.0916 16.5078C61.078 15.4824 60.326 14.7988 59.3006 14.8125ZM66.2186 20.4727V25.0664H58.0018V20.4727H66.2186ZM59.5194 21.6758V23.8359H64.7284V21.6758H59.5194ZM80.6156 13.6094V14.7168C80.6156 15.8721 80.6156 17.1367 80.2875 18.8867H81.9965V20.1172H77.0883V25.2305H75.557V20.1172H70.7309V18.8867H78.7426C79.0844 17.2051 79.098 15.9473 79.098 14.8398H72.057V13.6094H80.6156ZM93.8161 18.9004V20.1172H82.5505V18.9004H87.4177V17.6699H83.9313V13.3633H92.4626V14.5664H85.4489V16.4395H92.572V17.6699H88.9352V18.9004H93.8161ZM92.4626 21.0879V25.2578H90.9587V22.3047H83.7946V21.0879H92.4626ZM99.9892 13.5547C102.601 13.5547 104.597 14.9355 104.597 17.041C104.597 19.1738 102.601 20.5547 99.9892 20.5547C97.3916 20.5547 95.3955 19.1738 95.4091 17.041C95.3955 14.9355 97.3916 13.5547 99.9892 13.5547ZM99.9892 14.7852C98.1982 14.7715 96.872 15.6738 96.872 17.041C96.872 18.4355 98.1982 19.3105 99.9892 19.3105C101.794 19.3105 103.106 18.4355 103.106 17.041C103.106 15.6738 101.794 14.7715 99.9892 14.7852ZM105.663 22.4141V23.6582H94.3701V22.4141H105.663ZM117.483 22.5234V23.7812H106.19V22.5234H111.057V20.5137H107.53V16.4668H114.639V14.9355H107.502V13.7051H116.143V17.6699H109.047V19.2695H116.43V20.5137H112.561V22.5234H117.483ZM127.3 13.9785V15.2227H123.184V20.9785C125.112 20.9648 126.472 20.8828 128.011 20.5957L128.175 21.8262C126.438 22.168 124.948 22.2363 122.637 22.2363H121.653V13.9785H127.3ZM131.429 12.8574V25.2305H129.911V18.4492H126.643V17.2051H129.911V12.8574H131.429ZM140.288 14.8262C140.288 16.3848 141.3 17.8477 143.201 18.4492L142.38 19.6387C141.047 19.1875 140.09 18.2852 139.564 17.1367C139.017 18.4492 138.019 19.4814 136.597 19.9805L135.777 18.791C137.773 18.0938 138.757 16.4531 138.771 14.6895V13.5137H140.288V14.8262ZM145.661 12.8574V15.8652H147.384V17.123H145.661V20.2539H144.144V12.8574H145.661ZM141.642 20.5273C144.199 20.5137 145.771 21.3887 145.785 22.8516C145.771 24.3418 144.199 25.2031 141.642 25.2031C139.058 25.2031 137.458 24.3418 137.458 22.8516C137.458 21.3887 139.058 20.5137 141.642 20.5273ZM141.642 21.7168C139.947 21.7168 138.976 22.127 138.976 22.8516C138.976 23.6172 139.947 24 141.642 24C143.337 24 144.281 23.6172 144.281 22.8516C144.281 22.127 143.337 21.7168 141.642 21.7168ZM151.589 16.0977C151.589 18.0938 152.286 20.1719 153.954 21.2246L153.12 22.3867C152.006 21.7168 151.281 20.5615 150.878 19.2012C150.426 20.6982 149.633 21.9629 148.471 22.6738L147.528 21.5391C149.319 20.4453 150.126 18.2715 150.126 16.166V13.9512H151.589V16.0977ZM158.397 12.8574V25.2168H156.934V12.8574H158.397ZM155.827 13.0762V24.6152H154.391V18.3672H152.628V17.1094H154.391V13.0762H155.827ZM169.232 12.8574V17.7793H171.133V19.0371H169.232V25.2168H167.728V12.8574H169.232ZM166.771 14.7578V15.9746H159.484V14.7578H162.41V13.0352H163.928V14.7578H166.771ZM163.176 16.7812C164.953 16.7812 166.279 17.9844 166.279 19.6934C166.279 21.4023 164.953 22.5918 163.176 22.5918C161.371 22.5918 160.045 21.4023 160.059 19.6934C160.045 17.9844 161.371 16.7812 163.176 16.7812ZM163.176 18.0254C162.205 18.0254 161.508 18.6816 161.508 19.6934C161.508 20.7051 162.205 21.3477 163.176 21.334C164.119 21.3477 164.816 20.7051 164.83 19.6934C164.816 18.6816 164.119 18.0254 163.176 18.0254ZM181.462 13.9922V15.1816C181.448 16.7129 181.448 18.4355 180.97 21.0195L179.439 20.8555C179.917 18.4492 179.917 16.6924 179.931 15.209H172.548V13.9922H181.462ZM182.638 22.373V23.6172H171.372V22.373H175.529V18.0801H177.032V22.373H182.638Z" fill="#5E77A0"/>
<path d="M30.0898 33.8574V38.5469H31.9902V39.791H30.0898V46.2305H28.5723V33.8574H30.0898ZM26.6992 35.0332V36.2637H22.4336V41.9375C24.3545 41.9375 25.8721 41.8418 27.5742 41.541L27.752 42.8262C25.8379 43.1543 24.1699 43.209 21.9414 43.209H20.916V35.0332H26.6992ZM43.6595 35.5117V36.7559H41.9778V38.1641H43.6595V39.4219H41.9778V41.1172H40.4602V33.8574H41.9778V35.5117H43.6595ZM35.7024 34.5684C37.6028 34.5547 39.0247 35.7715 39.0384 37.5215C39.0247 39.2578 37.6028 40.4746 35.7024 40.4883C33.7884 40.4746 32.3528 39.2578 32.3665 37.5215C32.3528 35.7715 33.7884 34.5547 35.7024 34.5684ZM35.7024 35.8398C34.636 35.8398 33.843 36.5098 33.8567 37.5215C33.843 38.5469 34.636 39.1895 35.7024 39.2031C36.7552 39.1895 37.5481 38.5469 37.5481 37.5215C37.5481 36.5098 36.7552 35.8398 35.7024 35.8398ZM37.9583 41.4043C40.4876 41.4043 42.0872 42.3066 42.1009 43.8105C42.0872 45.3145 40.4876 46.2031 37.9583 46.2031C35.4016 46.2031 33.7747 45.3145 33.7747 43.8105C33.7747 42.3066 35.4016 41.4043 37.9583 41.4043ZM37.9583 42.6211C36.263 42.6211 35.2923 43.0312 35.2923 43.8105C35.2923 44.5898 36.263 44.9863 37.9583 44.9863C39.6536 44.9863 40.597 44.5898 40.597 43.8105C40.597 43.0312 39.6536 42.6211 37.9583 42.6211ZM53.7974 33.8711V37.7539H55.5201V39.0117H53.7974V43.0996H52.2798V33.8711H53.7974ZM51.3912 35.2383V36.4551H44.063V35.2383H46.9752V33.8574H48.4927V35.2383H51.3912ZM47.7271 36.9609C49.5045 36.9609 50.7349 37.9043 50.7486 39.3262C50.7349 40.7344 49.5045 41.6641 47.7271 41.6641C45.9361 41.6641 44.692 40.7344 44.692 39.3262C44.692 37.9043 45.9361 36.9609 47.7271 36.9609ZM47.7271 38.1367C46.7838 38.1367 46.1685 38.5742 46.1685 39.3262C46.1685 40.0645 46.7838 40.502 47.7271 40.4883C48.6705 40.502 49.2994 40.0645 49.2994 39.3262C49.2994 38.5742 48.6705 38.1367 47.7271 38.1367ZM54.2896 44.7402V45.9707H45.8814V42.375H47.399V44.7402H54.2896ZM69.2062 33.8574V46.2305H67.7023V33.8574H69.2062ZM65.4054 34.9375V39.5723H61.1534V42.0605C63.1017 42.0469 64.7833 41.9512 66.7042 41.623L66.8409 42.8672C64.7355 43.2363 62.8898 43.3047 60.6749 43.3047H59.5948V38.3691H63.8605V36.168H59.5812V34.9375H65.4054ZM82.0238 43.5098V44.7812H70.7309V43.5098H75.5844V41.0762H71.7016V39.873H73.4379V36.1816H71.6605V34.9512H81.0395V36.1816H79.2348V39.873H80.9984V41.0762H77.0883V43.5098H82.0238ZM74.9555 39.873H77.7309V36.1816H74.9555V39.873ZM92.5993 40.3379V41.541H83.9313V34.8281H92.4899V36.0586H85.4762V37.5488H92.2028V38.7383H85.4762V40.3379H92.5993ZM93.8434 43.4688V44.7129H82.5505V43.4688H93.8434ZM105.649 39.4629V40.6113H94.3564V39.4629H105.649ZM104.282 41.3496V44.166H97.2002V45.0273H104.651V46.0801H95.6826V43.1816H102.778V42.416H95.6689V41.3496H104.282ZM104.255 34.1309V36.9199H97.2959V37.7266H104.474V38.7656H95.792V35.9355H102.737V35.1836H95.7509V34.1309H104.255ZM118.98 33.8574V36.7285H120.703V37.9863H118.98V41.0625H117.462V33.8574H118.98ZM111.16 34.582V36.2637H114.044V34.582H115.548V40.4062H109.656V34.582H111.16ZM111.16 39.2031H114.044V37.4395H111.16V39.2031ZM119.062 41.6641V42.8809H112.527V44.8359H119.294V46.0391H111.009V41.6641H119.062ZM124.374 34.7598C126.233 34.7598 127.573 36.4551 127.587 39.1211C127.573 41.8145 126.233 43.4961 124.374 43.4961C122.501 43.4961 121.147 41.8145 121.161 39.1211C121.147 36.4551 122.501 34.7598 124.374 34.7598ZM124.374 36.127C123.335 36.127 122.624 37.2344 122.624 39.1211C122.624 41.0215 123.335 42.1289 124.374 42.1289C125.427 42.1289 126.124 41.0215 126.124 39.1211C126.124 37.2344 125.427 36.127 124.374 36.127ZM130.731 33.8574V38.6016H132.632V39.8867H130.731V46.2168H129.214V33.8574H130.731ZM144.164 43.4824V44.7266H132.871V43.4824H137.738V41.0762H134.115V34.6777H135.633V36.7012H141.361V34.6777H142.879V41.0762H139.242V43.4824H144.164ZM135.633 39.8457H141.361V37.918H135.633V39.8457ZM148.546 37.0977C148.546 39.0938 149.244 41.1719 150.911 42.2246L150.077 43.3867C148.963 42.7168 148.239 41.5615 147.835 40.2012C147.384 41.6982 146.591 42.9629 145.429 43.6738L144.486 42.5391C146.277 41.4453 147.083 39.2715 147.083 37.166V34.9512H148.546V37.0977ZM155.355 33.8574V46.2168H153.892V33.8574H155.355ZM152.785 34.0762V45.6152H151.349V39.3672H149.585V38.1094H151.349V34.0762H152.785ZM167.803 43.4688V44.7129H156.51V43.4688H159.122V40.3379C158.137 39.7773 157.543 38.8955 157.549 37.7949C157.536 35.8262 159.477 34.5273 162.13 34.5273C164.796 34.5273 166.737 35.8262 166.737 37.7949C166.737 38.875 166.163 39.7432 165.206 40.3105V43.4688H167.803ZM162.13 35.7305C160.284 35.7305 159.026 36.5098 159.04 37.7949C159.026 39.0664 160.284 39.8594 162.13 39.8594C163.975 39.8594 165.247 39.0664 165.247 37.7949C165.247 36.5098 163.975 35.7305 162.13 35.7305ZM160.626 43.4688H163.661V40.8848C163.189 40.9941 162.676 41.0488 162.13 41.0488C161.596 41.0488 161.09 40.9941 160.626 40.8984V43.4688Z" fill="#5E77A0"/>
<path d="M177 44L181 40L177 36" stroke="#5E77A0" stroke-width="1.5" stroke-linecap="round" stroke-linejoin="round"/>
</g>
<defs>
<linearGradient id="paint0_linear_993_4897" x1="0" y1="31" x2="287" y2="31" gradientUnits="userSpaceOnUse">
<stop offset="0.53" stop-color="#BDD4FA"/>
<stop offset="1" stop-color="#BDD4FA" stop-opacity="0.01"/>
</linearGradient>
<clipPath id="clip0_993_4897">
<rect width="375" height="62" fill="white"/>
</clipPath>
</defs>
</svg>
