<svg width="74" height="48" viewBox="0 0 74 48" fill="none" xmlns="http://www.w3.org/2000/svg">
<path d="M2.12386 42V10.6188H24.0127V17.2938H10.3593V22.9719H22.6257V29.6469H10.3593V42H2.12386Z" fill="#FFE156"/>
<path d="M44.733 42V10.6188H52.925V22.5385H53.0551C53.9653 20.1979 56.1325 18.1607 59.6867 18.1607C64.4113 18.1607 68.919 21.7583 68.919 30.2537C68.919 38.3591 64.6713 42.3034 59.6 42.3034C56.2192 42.3034 54.0086 40.483 53.0551 38.1424H52.8384V42H44.733ZM52.7083 30.2104C52.7083 33.7646 54.182 36.0185 56.6526 36.0185C59.0799 36.0185 60.4669 33.808 60.4669 30.2104C60.4669 26.6562 59.0799 24.489 56.6526 24.489C54.182 24.489 52.7083 26.6562 52.7083 30.2104Z" fill="#FAA3E0"/>
<path d="M14.104 5.60791C14.104 34.496 70.1274 40.4918 70.1274 11.833" stroke="#8DB1ED" stroke-width="7.41826" stroke-linecap="round" stroke-linejoin="round"/>
<mask id="mask0_1236_5990" style="mask-type:alpha" maskUnits="userSpaceOnUse" x="0" y="20" width="24" height="8">
<rect x="0.887695" y="20.485" width="22.6361" height="6.82832" fill="#FFE156"/>
</mask>
<g mask="url(#mask0_1236_5990)">
<path d="M2.12386 41.8246V10.4434H24.0127V17.1184H10.3593V22.7965H22.6257V29.4715H10.3593V41.8246H2.12386Z" fill="#FFE156"/>
</g>
<path d="M40.8658 10.6957L32.7183 32.7764L24.8765 30.4067L33.024 8.32601L40.8658 10.6957ZM27.9329 33.997C30.0904 34.649 31.2478 36.7615 30.5276 38.7134C29.8074 40.6653 27.4796 41.7246 25.3221 41.0726C23.1645 40.4206 22.0071 38.3081 22.7273 36.3562C23.4475 34.4043 25.7753 33.345 27.9329 33.997Z" fill="#FFE156"/>
<mask id="mask1_1236_5990" style="mask-type:alpha" maskUnits="userSpaceOnUse" x="57" y="16" width="16" height="19">
<path d="M64.0584 16.3202L57.4915 23.174L58.2211 34.8658L72.328 25.9962L64.0584 16.3202Z" fill="#FAA3E0"/>
</mask>
<g mask="url(#mask1_1236_5990)">
<path d="M44.7328 42V10.6188H52.9248V22.5385H53.0548C53.9651 20.1979 56.1323 18.1607 59.6865 18.1607C64.411 18.1607 68.9188 21.7583 68.9188 30.2537C68.9188 38.3591 64.6711 42.3034 59.5998 42.3034C56.219 42.3034 54.0084 40.483 53.0548 38.1424H52.8381V42H44.7328ZM52.7081 30.2104C52.7081 33.7646 54.1818 36.0185 56.6524 36.0185C59.0797 36.0185 60.4667 33.808 60.4667 30.2104C60.4667 26.6562 59.0797 24.489 56.6524 24.489C54.1818 24.489 52.7081 26.6562 52.7081 30.2104Z" fill="#FAA3E0"/>
</g>
</svg>
