<svg width="22" height="21" viewBox="0 0 22 21" fill="none" xmlns="http://www.w3.org/2000/svg">
<path fill-rule="evenodd" clip-rule="evenodd" d="M20.1277 0.895488C18.929 -0.298495 16.9905 -0.298496 15.7918 0.895487L14.9236 1.76029L14.9236 1.76028L14.9209 1.76302L10.2427 6.47089C9.73875 6.97809 9.39027 7.61881 9.23838 8.31751L8.84624 10.1214C8.57621 11.3635 9.6787 12.47 10.9218 12.2045L12.7317 11.818C13.4434 11.666 14.0955 11.3102 14.6085 10.7939L19.2724 6.10036L19.2751 6.09764L20.1277 5.24847C21.3331 4.04782 21.3331 2.09614 20.1277 0.895488ZM16.8504 1.95823C17.4638 1.34725 18.4557 1.34725 19.0691 1.95824C19.6859 2.57263 19.6859 3.57133 19.0691 4.18573L18.6599 4.59331C17.8161 3.96345 17.0661 3.21622 16.4329 2.37407L16.8504 1.95823ZM15.3639 3.44526C16.0106 4.27555 16.7587 5.02115 17.5907 5.6647L13.5445 9.73665C13.2367 10.0464 12.8454 10.2599 12.4184 10.3511L10.6085 10.7376C10.4309 10.7755 10.2734 10.6175 10.312 10.44L10.7041 8.63616C10.7953 8.21693 11.0044 7.8325 11.3068 7.52818L15.3639 3.44526ZM2 6.79465C2 3.89516 4.35051 1.54465 7.25 1.54465H10.75C11.1642 1.54465 11.5 1.20887 11.5 0.794654C11.5 0.380441 11.1642 0.044654 10.75 0.044654H7.25C3.52208 0.044654 0.5 3.06673 0.5 6.79465V13.7947C0.5 17.5226 3.52208 20.5447 7.25 20.5447H14.25C17.9779 20.5447 21 17.5226 21 13.7947V10.2947C21 9.88044 20.6642 9.54465 20.25 9.54465C19.8358 9.54465 19.5 9.88044 19.5 10.2947V13.7947C19.5 16.6941 17.1495 19.0447 14.25 19.0447H7.25C4.35051 19.0447 2 16.6942 2 13.7947V6.79465Z" fill="#363636"/>
</svg>
