<svg width="23" height="22" viewBox="0 0 23 22" fill="none" xmlns="http://www.w3.org/2000/svg">
<path fill-rule="evenodd" clip-rule="evenodd" d="M11.5 0.25C5.56294 0.25 0.75 5.06294 0.75 11C0.75 16.9371 5.56294 21.75 11.5 21.75C17.4371 21.75 22.25 16.9371 22.25 11C22.25 5.06294 17.4371 0.25 11.5 0.25ZM2.25 11C2.25 5.89137 6.39137 1.75 11.5 1.75C16.6086 1.75 20.75 5.89137 20.75 11C20.75 16.1086 16.6086 20.25 11.5 20.25C6.39137 20.25 2.25 16.1086 2.25 11ZM8.09919 13.5496C7.85042 13.2184 7.38027 13.1516 7.04908 13.4003C6.71789 13.6491 6.65107 14.1192 6.89984 14.4504C7.9476 15.8454 9.6182 16.75 11.4999 16.75C13.3816 16.75 15.0522 15.8454 16.0999 14.4504C16.3487 14.1192 16.2819 13.6491 15.9507 13.4003C15.6195 13.1516 15.1493 13.2184 14.9006 13.5496C14.1239 14.5835 12.8898 15.25 11.4999 15.25C10.1099 15.25 8.87583 14.5835 8.09919 13.5496ZM9.5 9C9.5 9.55229 9.05229 10 8.5 10C7.94772 10 7.5 9.55229 7.5 9C7.5 8.44771 7.94772 8 8.5 8C9.05229 8 9.5 8.44771 9.5 9ZM14.5 10C15.0523 10 15.5 9.55229 15.5 9C15.5 8.44771 15.0523 8 14.5 8C13.9477 8 13.5 8.44771 13.5 9C13.5 9.55229 13.9477 10 14.5 10Z" fill="#363636"/>
</svg>
